<svg xmlns="http://www.w3.org/2000/svg" width="390" height="2691" viewBox="0 0 390 2691" fill="none"><defs><clipPath id="clip1"><path d="M133.4,106.4h171.6v18.8h-171.6Z"/></clipPath><clipPath id="clip2"><path d="M32,180H358a16,16 0 0 1 16,16V384.3a16,16 0 0 1 -16,16H32a16,16 0 0 1 -16,-16V196a16,16 0 0 1 16,-16Z"/></clipPath><clipPath id="clip3"><path d="M74,471.9h226v15.6h-226Z"/></clipPath><clipPath id="clip4"><path d="M74,533.3h202v15.6h-202Z"/></clipPath><clipPath id="clip5"><path d="M74,594h202v15.6h-202Z"/></clipPath><clipPath id="clip6"><path d="M74,655.4h226v15.6h-226Z"/></clipPath><linearGradient id="grad7_conic" gradientUnits="userSpaceOnUse" x1="318" y1="2583" x2="374" y2="2583"><stop offset="0" stop-color="rgb(125,91,231)"/><stop offset="30" stop-color="rgb(250,36,206)"/><stop offset="55" stop-color="rgb(253,154,70)"/><stop offset="100" stop-color="rgb(0,145,255)"/></linearGradient></defs><rect x="0" y="0" width="390" height="2691" fill="rgb(255,255,255)"/><g><path d="M0,0h390v2690.5h-390Z" fill="rgb(255,255,255)"/><g><g><path d="M0,0h390v66h-390Z" fill="rgb(255,255,255)" fill-opacity="0.86"/><path d="M0.5,0.5h389v65h-389Z" fill="none" stroke="rgb(32,32,32)" stroke-width="1" stroke-opacity="0.07"/><g><g><g><g><g><g><g><g><svg viewBox="0 0 32 32" aria-hidden="true" x="341" y="13.5" width="32" height="32"><rect width="32" height="32" rx="9" fill="#202020"/><path d="M8 21c4 0 4-10 8-10s4 10 8 10" stroke="#6647f0" stroke-width="3" fill="none" stroke-linecap="round"/><circle cx="8" cy="21" r="2.4" fill="#0091ff"/><circle cx="24" cy="21" r="2.4" fill="#ffffff"/></svg></g><g><g><g><g><text x="305.5" y="29.1" font-family="Cairo" font-size="19" fill="rgb(32,32,32)" text-anchor="middle" xml:space="preserve" font-weight="900" direction="rtl">واصل</text><g><g><text x="257" y="29.1" font-family="Cairo" font-size="19" fill="rgb(102,71,240)" text-anchor="middle" xml:space="preserve" font-weight="900" direction="rtl">مصر</text></g></g></g></g><g><g><text x="249.3" y="43.6" font-family="Inter" font-size="9" fill="rgb(131,131,131)" text-anchor="start" xml:space="preserve" letter-spacing="0.7">WASEL EGYPT</text></g></g></g></g></g></g></g></g><g><g><g><g><g><svg xmlns="http://www.w3.org/2000/svg" width="18" height="18" viewBox="0 0 24 24" fill="none" stroke="rgb(32,32,32)" stroke-width="2.2" stroke-linecap="round" stroke-linejoin="round" aria-hidden="true" x="76" y="24"><path d="M10.268 21a2 2 0 0 0 3.464 0"/><path d="M3.262 15.326A1 1 0 0 0 4 17h16a1 1 0 0 0 .74-1.673C19.41 13.956 18 12.499 18 8A6 6 0 0 0 6 8c0 4.499-1.411 5.956-2.738 7.326"/></svg></g><g><path d="M77,21H77a4,4 0 0 1 4,4V25a4,4 0 0 1 -4,4H77a4,4 0 0 1 -4,-4V25a4,4 0 0 1 4,-4Z" fill="rgb(220,38,38)"/><g/></g></g></g><g><g><g><svg xmlns="http://www.w3.org/2000/svg" width="20" height="20" viewBox="0 0 24 24" fill="none" stroke="rgb(32,32,32)" stroke-width="2" stroke-linecap="round" stroke-linejoin="round" aria-hidden="true" x="27" y="23"><path d="M4 12h16"/><path d="M4 18h16"/><path d="M4 6h16"/></svg></g></g></g></g></g></g></g></g></g><g><g><g><g><g><path d="M32,90H358a16,16 0 0 1 16,16V140a16,16 0 0 1 -16,16H32a16,16 0 0 1 -16,-16V106a16,16 0 0 1 16,-16Z" fill="rgb(255,255,255)" fill-opacity="0.86"/><path d="M32,90.5H358a15.5,15.5 0 0 1 15.5,15.5V140a15.5,15.5 0 0 1 -15.5,15.5H32a15.5,15.5 0 0 1 -15.5,-15.5V106a15.5,15.5 0 0 1 15.5,-15.5Z" fill="none" stroke="rgb(32,32,32)" stroke-width="1" stroke-opacity="0.07"/><g><g><g><g><g><g><svg xmlns="http://www.w3.org/2000/svg" width="20" height="20" viewBox="0 0 24 24" fill="none" stroke="rgb(32,32,32)" stroke-width="2" stroke-linecap="round" stroke-linejoin="round" aria-hidden="true" x="327" y="113"><circle cx="12" cy="12" r="10"/><line x1="22" x2="18" y1="12" y2="12"/><line x1="6" x2="2" y1="12" y2="12"/><line x1="12" x2="12" y1="6" y2="2"/><line x1="12" x2="12" y1="22" y2="18"/></svg></g></g></g><g><g><g><g clip-path="url(#clip1)"><text x="277" y="120.1" font-family="Cairo" font-size="15" fill="rgb(32,32,32)" text-anchor="middle" xml:space="preserve" font-weight="900" direction="rtl">السادات</text><g clip-path="url(#clip1)"><g clip-path="url(#clip1)"><text x="239.7" y="120.1" font-family="Plus Jakarta Sans" font-size="15" fill="rgb(131,131,131)" text-anchor="middle" xml:space="preserve" font-weight="900" direction="rtl">←</text></g></g><text x="188.4" y="120.1" font-family="Cairo" font-size="15" fill="rgb(32,32,32)" text-anchor="middle" xml:space="preserve" font-weight="900" direction="rtl">عدلي منصور</text></g></g><g><g><text x="133.4" y="136.1" font-family="Inter" font-size="10" fill="rgb(131,131,131)" text-anchor="start" xml:space="preserve" letter-spacing="0.8">LIVE JOURNEY ·</text><text x="224.8" y="136.1" font-family="Inter" font-size="10" fill="rgb(131,131,131)" text-anchor="start" xml:space="preserve" letter-spacing="0.8">WSL-2-710-22</text></g></g></g></g></g></g><g><g><g><path d="M44,112.5H110.3a10.5,10.5 0 0 1 10.5,10.5V123a10.5,10.5 0 0 1 -10.5,10.5H44a10.5,10.5 0 0 1 -10.5,-10.5V123a10.5,10.5 0 0 1 10.5,-10.5Z" fill="none" stroke="rgb(232,232,232)" stroke-width="1"/><g><g><svg xmlns="http://www.w3.org/2000/svg" width="12" height="12" viewBox="0 0 24 24" fill="none" stroke="rgb(32,32,32)" stroke-width="2" stroke-linecap="round" stroke-linejoin="round" aria-hidden="true" x="98.3" y="117"><path d="M16.247 7.761a6 6 0 0 1 0 8.478"/><path d="M19.075 4.933a10 10 0 0 1 0 14.134"/><path d="M4.925 19.067a10 10 0 0 1 0-14.134"/><path d="M7.753 16.239a6 6 0 0 1 0-8.478"/><circle cx="12" cy="12" r="2"/></svg></g><text x="68.2" y="126.8" font-family="Tajawal" font-size="11" fill="rgb(0,192,122)" text-anchor="middle" xml:space="preserve" font-weight="700" direction="rtl">رحلة حية</text></g></g></g></g></g></g><g><g><g><g><g><g><g><g><text x="289" y="862.6" font-family="Cairo" font-size="17" fill="rgb(32,32,32)" text-anchor="middle" xml:space="preserve" font-weight="900" direction="rtl">مسار الرحلة — محطة</text><text x="345.5" y="888.1" font-family="Cairo" font-size="17" fill="rgb(32,32,32)" text-anchor="middle" xml:space="preserve" font-weight="900" direction="rtl">بمحطة</text></g></g><g><g><g><svg xmlns="http://www.w3.org/2000/svg" width="14" height="14" viewBox="0 0 24 24" fill="none" stroke="rgb(32,32,32)" stroke-width="2" stroke-linecap="round" stroke-linejoin="round" aria-hidden="true" x="148.6" y="863.3"><path d="m12 14 4-4"/><path d="M3.34 19a10 10 0 1 1 17.32 0"/></svg></g><g><path d="M119.8,856.3H128.6a14,14 0 0 1 14,14V870.3a14,14 0 0 1 -14,14H119.8a14,14 0 0 1 -14,-14V870.3a14,14 0 0 1 14,-14Z" fill="rgb(32,32,32)"/><g><text x="115.8" y="873.3" font-family="Inter" font-size="11" fill="rgb(255,255,255)" text-anchor="start" xml:space="preserve" font-weight="700">×</text><text x="125" y="873.3" font-family="Inter" font-size="11" fill="rgb(255,255,255)" text-anchor="start" xml:space="preserve" font-weight="700">1</text></g></g><g><path d="M74.9,856.3H85.8a14,14 0 0 1 14,14V870.3a14,14 0 0 1 -14,14H74.9a14,14 0 0 1 -14,-14V870.3a14,14 0 0 1 14,-14Z" fill="rgb(255,255,255)"/><path d="M74.9,856.8H85.8a13.5,13.5 0 0 1 13.5,13.5V870.3a13.5,13.5 0 0 1 -13.5,13.5H74.9a13.5,13.5 0 0 1 -13.5,-13.5V870.3a13.5,13.5 0 0 1 13.5,-13.5Z" fill="none" stroke="rgb(232,232,232)" stroke-width="1"/><g><text x="71.9" y="873.3" font-family="Inter" font-size="11" fill="rgb(42,42,42)" text-anchor="start" xml:space="preserve" font-weight="700">×</text><text x="81.1" y="873.3" font-family="Inter" font-size="11" fill="rgb(42,42,42)" text-anchor="start" xml:space="preserve" font-weight="700">4</text></g></g><g><path d="M30,856.3H40.9a14,14 0 0 1 14,14V870.3a14,14 0 0 1 -14,14H30a14,14 0 0 1 -14,-14V870.3a14,14 0 0 1 14,-14Z" fill="rgb(255,255,255)"/><path d="M30,856.8H40.9a13.5,13.5 0 0 1 13.5,13.5V870.3a13.5,13.5 0 0 1 -13.5,13.5H30a13.5,13.5 0 0 1 -13.5,-13.5V870.3a13.5,13.5 0 0 1 13.5,-13.5Z" fill="none" stroke="rgb(232,232,232)" stroke-width="1"/><g><text x="27" y="873.3" font-family="Inter" font-size="11" fill="rgb(42,42,42)" text-anchor="start" xml:space="preserve" font-weight="700">×</text><text x="36.2" y="873.3" font-family="Inter" font-size="11" fill="rgb(42,42,42)" text-anchor="start" xml:space="preserve" font-weight="700">8</text></g></g></g></g></g></g><g><path d="M360,911.8h2v1273.8h-2Z" fill="rgb(232,232,232)"/><g><g><g><g><g><g><g><g><g><text x="297.2" y="934.4" font-family="Tajawal" font-size="13.5" fill="rgb(32,32,32)" text-anchor="middle" xml:space="preserve" font-weight="700" direction="rtl">السادات</text></g></g><g><path d="M236.5,920.4H252.9a9.5,9.5 0 0 1 9.5,9.5V929.9a9.5,9.5 0 0 1 -9.5,9.5H236.5a9.5,9.5 0 0 1 -9.5,-9.5V929.9a9.5,9.5 0 0 1 9.5,-9.5Z" fill="rgb(0,145,255)"/><g><text x="235" y="933.3" font-family="Tajawal" font-size="10" fill="rgb(255,255,255)" text-anchor="start" xml:space="preserve" font-weight="700">الآن</text></g></g></g></g></g></g><g><path d="M361,913.8H361a8,8 0 0 1 8,8V921.8a8,8 0 0 1 -8,8H361a8,8 0 0 1 -8,-8V921.8a8,8 0 0 1 8,-8Z" fill="rgb(0,145,255)"/><g/></g></g></g><g><g><g><g><g><g><g><g><text x="297.2" y="990.7" font-family="Tajawal" font-size="13.5" fill="rgb(42,42,42)" text-anchor="middle" xml:space="preserve" font-weight="700" direction="rtl">السادات</text></g></g></g></g></g></g><g><path d="M361,970H361a8,8 0 0 1 8,8V978a8,8 0 0 1 -8,8H361a8,8 0 0 1 -8,-8V978a8,8 0 0 1 8,-8Z" fill="rgb(212,212,212)"/><g/></g></g></g><g><g><g><g><g><g><g><g><text x="286.9" y="1046.9" font-family="Tajawal" font-size="13.5" fill="rgb(42,42,42)" text-anchor="middle" xml:space="preserve" font-weight="700" direction="rtl">محمد نجيب</text></g></g></g></g></g></g><g><path d="M361,1026.3H361a8,8 0 0 1 8,8V1034.3a8,8 0 0 1 -8,8H361a8,8 0 0 1 -8,-8V1034.3a8,8 0 0 1 8,-8Z" fill="rgb(212,212,212)"/><g/></g></g></g><g><g><g><g><g><g><g><g><text x="305.7" y="1103.2" font-family="Tajawal" font-size="13.5" fill="rgb(42,42,42)" text-anchor="middle" xml:space="preserve" font-weight="700" direction="rtl">العتبة</text></g></g><g><path d="M242.1,1088.6H269.5a10,10 0 0 1 10,10V1098.6a10,10 0 0 1 -10,10H242.1a10,10 0 0 1 -10,-10V1098.6a10,10 0 0 1 10,-10Z" fill="rgb(220,38,38)" fill-opacity="0.08"/><path d="M242.1,1089.1H269.5a9.5,9.5 0 0 1 9.5,9.5V1098.6a9.5,9.5 0 0 1 -9.5,9.5H242.1a9.5,9.5 0 0 1 -9.5,-9.5V1098.6a9.5,9.5 0 0 1 9.5,-9.5Z" fill="none" stroke="rgb(220,38,38)" stroke-width="1" stroke-opacity="0.19"/><g><g><svg viewBox="0 0 8 8" aria-hidden="true" x="241.1" y="1093.6" width="10" height="10"><circle cx="4" cy="4" r="4" fill="#dc2626"/></svg></g><text x="257.1" y="1102.1" font-family="Inter" font-size="10" fill="rgb(220,38,38)" text-anchor="start" xml:space="preserve" font-weight="700">L2</text></g></g></g></g></g></g><g><path d="M361,1082.5H361a8,8 0 0 1 8,8V1090.5a8,8 0 0 1 -8,8H361a8,8 0 0 1 -8,-8V1090.5a8,8 0 0 1 8,-8Z" fill="rgb(212,212,212)"/><g/></g></g></g><g><g><g><g><g><g><g><g><text x="288.9" y="1159.4" font-family="Tajawal" font-size="13.5" fill="rgb(42,42,42)" text-anchor="middle" xml:space="preserve" font-weight="700" direction="rtl">الهايكستب</text></g></g></g></g></g></g><g><path d="M361,1138.8H361a8,8 0 0 1 8,8V1146.8a8,8 0 0 1 -8,8H361a8,8 0 0 1 -8,-8V1146.8a8,8 0 0 1 8,-8Z" fill="rgb(212,212,212)"/><g/></g></g></g><g><g><g><g><g><g><g><g><text x="271.8" y="1215.7" font-family="Tajawal" font-size="13.5" fill="rgb(42,42,42)" text-anchor="middle" xml:space="preserve" font-weight="700" direction="rtl">عمر بن الخطاب</text></g></g></g></g></g></g><g><path d="M361,1195H361a8,8 0 0 1 8,8V1203a8,8 0 0 1 -8,8H361a8,8 0 0 1 -8,-8V1203a8,8 0 0 1 8,-8Z" fill="rgb(212,212,212)"/><g/></g></g></g><g><g><g><g><g><g><g><g><text x="310.8" y="1271.9" font-family="Tajawal" font-size="13.5" fill="rgb(42,42,42)" text-anchor="middle" xml:space="preserve" font-weight="700" direction="rtl">قباء</text></g></g></g></g></g></g><g><path d="M361,1251.3H361a8,8 0 0 1 8,8V1259.3a8,8 0 0 1 -8,8H361a8,8 0 0 1 -8,-8V1259.3a8,8 0 0 1 8,-8Z" fill="rgb(212,212,212)"/><g/></g></g></g><g><g><g><g><g><g><g><g><text x="282.6" y="1328.2" font-family="Tajawal" font-size="13.5" fill="rgb(42,42,42)" text-anchor="middle" xml:space="preserve" font-weight="700" direction="rtl">هشام بركات</text></g></g></g></g></g></g><g><path d="M361,1307.5H361a8,8 0 0 1 8,8V1315.5a8,8 0 0 1 -8,8H361a8,8 0 0 1 -8,-8V1315.5a8,8 0 0 1 8,-8Z" fill="rgb(212,212,212)"/><g/></g></g></g><g><g><g><g><g><g><g><g><text x="303.4" y="1384.4" font-family="Tajawal" font-size="13.5" fill="rgb(42,42,42)" text-anchor="middle" xml:space="preserve" font-weight="700" direction="rtl">النزهة</text></g></g></g></g></g></g><g><path d="M361,1363.8H361a8,8 0 0 1 8,8V1371.8a8,8 0 0 1 -8,8H361a8,8 0 0 1 -8,-8V1371.8a8,8 0 0 1 8,-8Z" fill="rgb(212,212,212)"/><g/></g></g></g><g><g><g><g><g><g><g><g><text x="281.1" y="1440.7" font-family="Tajawal" font-size="13.5" fill="rgb(42,42,42)" text-anchor="middle" xml:space="preserve" font-weight="700" direction="rtl">نادي الشمس</text></g></g></g></g></g></g><g><path d="M361,1420H361a8,8 0 0 1 8,8V1428a8,8 0 0 1 -8,8H361a8,8 0 0 1 -8,-8V1428a8,8 0 0 1 8,-8Z" fill="rgb(212,212,212)"/><g/></g></g></g><g><g><g><g><g><g><g><g><text x="287.7" y="1496.9" font-family="Tajawal" font-size="13.5" fill="rgb(42,42,42)" text-anchor="middle" xml:space="preserve" font-weight="700" direction="rtl">ألف مسكن</text></g></g></g></g></g></g><g><path d="M361,1476.3H361a8,8 0 0 1 8,8V1484.3a8,8 0 0 1 -8,8H361a8,8 0 0 1 -8,-8V1484.3a8,8 0 0 1 8,-8Z" fill="rgb(212,212,212)"/><g/></g></g></g><g><g><g><g><g><g><g><g><text x="288" y="1553.2" font-family="Tajawal" font-size="13.5" fill="rgb(42,42,42)" text-anchor="middle" xml:space="preserve" font-weight="700" direction="rtl">هليوبوليس</text></g></g></g></g></g></g><g><path d="M361,1532.5H361a8,8 0 0 1 8,8V1540.5a8,8 0 0 1 -8,8H361a8,8 0 0 1 -8,-8V1540.5a8,8 0 0 1 8,-8Z" fill="rgb(212,212,212)"/><g/></g></g></g><g><g><g><g><g><g><g><g><text x="302.9" y="1609.4" font-family="Tajawal" font-size="13.5" fill="rgb(42,42,42)" text-anchor="middle" xml:space="preserve" font-weight="700" direction="rtl">هارون</text></g></g></g></g></g></g><g><path d="M361,1588.8H361a8,8 0 0 1 8,8V1596.8a8,8 0 0 1 -8,8H361a8,8 0 0 1 -8,-8V1596.8a8,8 0 0 1 8,-8Z" fill="rgb(212,212,212)"/><g/></g></g></g><g><g><g><g><g><g><g><g><text x="300.5" y="1665.7" font-family="Tajawal" font-size="13.5" fill="rgb(42,42,42)" text-anchor="middle" xml:space="preserve" font-weight="700" direction="rtl">الأهرام</text></g></g></g></g></g></g><g><path d="M361,1645H361a8,8 0 0 1 8,8V1653a8,8 0 0 1 -8,8H361a8,8 0 0 1 -8,-8V1653a8,8 0 0 1 8,-8Z" fill="rgb(212,212,212)"/><g/></g></g></g><g><g><g><g><g><g><g><g><text x="288.4" y="1721.9" font-family="Tajawal" font-size="13.5" fill="rgb(42,42,42)" text-anchor="middle" xml:space="preserve" font-weight="700" direction="rtl">كلية البنات</text></g></g></g></g></g></g><g><path d="M361,1701.3H361a8,8 0 0 1 8,8V1709.3a8,8 0 0 1 -8,8H361a8,8 0 0 1 -8,-8V1709.3a8,8 0 0 1 8,-8Z" fill="rgb(212,212,212)"/><g/></g></g></g><g><g><g><g><g><g><g><g><text x="301.3" y="1778.2" font-family="Tajawal" font-size="13.5" fill="rgb(42,42,42)" text-anchor="middle" xml:space="preserve" font-weight="700" direction="rtl">الاستاد</text></g></g></g></g></g></g><g><path d="M361,1757.5H361a8,8 0 0 1 8,8V1765.5a8,8 0 0 1 -8,8H361a8,8 0 0 1 -8,-8V1765.5a8,8 0 0 1 8,-8Z" fill="rgb(212,212,212)"/><g/></g></g></g><g><g><g><g><g><g><g><g><text x="277.7" y="1834.4" font-family="Tajawal" font-size="13.5" fill="rgb(42,42,42)" text-anchor="middle" xml:space="preserve" font-weight="700" direction="rtl">أرض المعارض</text></g></g></g></g></g></g><g><path d="M361,1813.8H361a8,8 0 0 1 8,8V1821.8a8,8 0 0 1 -8,8H361a8,8 0 0 1 -8,-8V1821.8a8,8 0 0 1 8,-8Z" fill="rgb(212,212,212)"/><g/></g></g></g><g><g><g><g><g><g><g><g><text x="296.6" y="1890.7" font-family="Tajawal" font-size="13.5" fill="rgb(42,42,42)" text-anchor="middle" xml:space="preserve" font-weight="700" direction="rtl">العباسية</text></g></g></g></g></g></g><g><path d="M361,1870H361a8,8 0 0 1 8,8V1878a8,8 0 0 1 -8,8H361a8,8 0 0 1 -8,-8V1878a8,8 0 0 1 8,-8Z" fill="rgb(212,212,212)"/><g/></g></g></g><g><g><g><g><g><g><g><g><text x="292.2" y="1946.9" font-family="Tajawal" font-size="13.5" fill="rgb(42,42,42)" text-anchor="middle" xml:space="preserve" font-weight="700" direction="rtl">عبده باشا</text></g></g></g></g></g></g><g><path d="M361,1926.3H361a8,8 0 0 1 8,8V1934.3a8,8 0 0 1 -8,8H361a8,8 0 0 1 -8,-8V1934.3a8,8 0 0 1 8,-8Z" fill="rgb(212,212,212)"/><g/></g></g></g><g><g><g><g><g><g><g><g><text x="302" y="2003.2" font-family="Tajawal" font-size="13.5" fill="rgb(42,42,42)" text-anchor="middle" xml:space="preserve" font-weight="700" direction="rtl">الجيش</text></g></g></g></g></g></g><g><path d="M361,1982.5H361a8,8 0 0 1 8,8V1990.5a8,8 0 0 1 -8,8H361a8,8 0 0 1 -8,-8V1990.5a8,8 0 0 1 8,-8Z" fill="rgb(212,212,212)"/><g/></g></g></g><g><g><g><g><g><g><g><g><text x="283.4" y="2059.4" font-family="Tajawal" font-size="13.5" fill="rgb(42,42,42)" text-anchor="middle" xml:space="preserve" font-weight="700" direction="rtl">باب الشعرية</text></g></g></g></g></g></g><g><path d="M361,2038.8H361a8,8 0 0 1 8,8V2046.8a8,8 0 0 1 -8,8H361a8,8 0 0 1 -8,-8V2046.8a8,8 0 0 1 8,-8Z" fill="rgb(212,212,212)"/><g/></g></g></g><g><g><g><g><g><g><g><g><text x="282.1" y="2115.7" font-family="Tajawal" font-size="13.5" fill="rgb(42,42,42)" text-anchor="middle" xml:space="preserve" font-weight="700" direction="rtl">عدلي منصور</text></g></g><g><path d="M194.8,2101.1H222.1a10,10 0 0 1 10,10V2111.1a10,10 0 0 1 -10,10H194.8a10,10 0 0 1 -10,-10V2111.1a10,10 0 0 1 10,-10Z" fill="rgb(22,163,74)" fill-opacity="0.08"/><path d="M194.8,2101.6H222.1a9.5,9.5 0 0 1 9.5,9.5V2111.1a9.5,9.5 0 0 1 -9.5,9.5H194.8a9.5,9.5 0 0 1 -9.5,-9.5V2111.1a9.5,9.5 0 0 1 9.5,-9.5Z" fill="none" stroke="rgb(22,163,74)" stroke-width="1" stroke-opacity="0.19"/><g><g><svg viewBox="0 0 8 8" aria-hidden="true" x="193.8" y="2106.1" width="10" height="10"><circle cx="4" cy="4" r="4" fill="#16a34a"/></svg></g><text x="209.8" y="2114.6" font-family="Inter" font-size="10" fill="rgb(22,163,74)" text-anchor="start" xml:space="preserve" font-weight="700">L3</text></g></g></g></g></g></g><g><path d="M361,2095H361a8,8 0 0 1 8,8V2103a8,8 0 0 1 -8,8H361a8,8 0 0 1 -8,-8V2103a8,8 0 0 1 8,-8Z" fill="rgb(212,212,212)"/><g/></g></g></g><g><g><g><g><g><g><g><g><text x="282.1" y="2171.9" font-family="Tajawal" font-size="13.5" fill="rgb(42,42,42)" text-anchor="middle" xml:space="preserve" font-weight="700" direction="rtl">عدلي منصور</text></g></g></g></g></g></g><g><path d="M361,2151.3H361a8,8 0 0 1 8,8V2159.3a8,8 0 0 1 -8,8H361a8,8 0 0 1 -8,-8V2159.3a8,8 0 0 1 8,-8Z" fill="rgb(212,212,212)"/><g/></g></g></g></g></g></g></g><g><g><g><g><g><path d="M32,180H358a16,16 0 0 1 16,16V384.3a16,16 0 0 1 -16,16H32a16,16 0 0 1 -16,-16V196a16,16 0 0 1 16,-16Z" fill="rgb(255,255,255)"/><path d="M32,180.5H358a15.5,15.5 0 0 1 15.5,15.5V384.3a15.5,15.5 0 0 1 -15.5,15.5H32a15.5,15.5 0 0 1 -15.5,-15.5V196a15.5,15.5 0 0 1 15.5,-15.5Z" fill="none" stroke="rgb(232,232,232)" stroke-width="1"/><g clip-path="url(#clip2)"><g clip-path="url(#clip2)"><path d="M17,181h356v49h-356Z" fill="rgb(248,249,250)"/><path d="M17,229h356v1h-356Z" fill="rgb(232,232,232)"/><g clip-path="url(#clip2)"><g clip-path="url(#clip2)"><g clip-path="url(#clip2)"><text x="271.5" y="211" font-family="Inter" font-size="10" fill="rgb(131,131,131)" text-anchor="start" xml:space="preserve" letter-spacing="0.8">NEXT STATION</text></g></g></g></g><g clip-path="url(#clip2)"><g clip-path="url(#clip2)"><g clip-path="url(#clip2)"><g clip-path="url(#clip2)"><text x="309.7" y="262.8" font-family="Tajawal" font-size="12.5" fill="rgb(100,100,100)" text-anchor="middle" xml:space="preserve" font-weight="600" direction="rtl">المحطة التالية</text></g></g><g clip-path="url(#clip2)"><g clip-path="url(#clip2)"><text x="311" y="293.3" font-family="Cairo" font-size="22" fill="rgb(32,32,32)" text-anchor="middle" xml:space="preserve" font-weight="900" direction="rtl">السادات</text></g></g><g clip-path="url(#clip2)"><g clip-path="url(#clip2)"><g clip-path="url(#clip2)"><g clip-path="url(#clip2)"><g clip-path="url(#clip2)"><g clip-path="url(#clip2)"><text x="225.7" y="346.1" font-family="Inter" font-size="40" fill="rgb(32,32,32)" text-anchor="start" xml:space="preserve" font-weight="700">01:36</text></g></g><g clip-path="url(#clip2)"><g clip-path="url(#clip2)"><text x="225.7" y="369.2" font-family="Inter" font-size="10" fill="rgb(131,131,131)" text-anchor="start" xml:space="preserve" letter-spacing="0.8">MIN · SEC</text></g></g></g></g><g clip-path="url(#clip2)"><g clip-path="url(#clip2)"><g clip-path="url(#clip2)"><svg xmlns="http://www.w3.org/2000/svg" width="20" height="20" viewBox="0 0 24 24" fill="none" stroke="rgb(32,32,32)" stroke-width="2" stroke-linecap="round" stroke-linejoin="round" aria-hidden="true" x="45" y="345.3"><circle cx="12" cy="5" r="1"/><path d="m9 20 3-6 3 6"/><path d="m6 8 6 2 6-2"/><path d="M12 10v4"/></svg></g></g></g></g></g></g></g><g clip-path="url(#clip2)"><path d="M17,393.3h356v6h-356Z" fill="rgb(238,238,238)"/><g clip-path="url(#clip2)"><g clip-path="url(#clip2)"><path d="M369.8,393.3h3.2v6h-3.2Z" fill="rgb(0,145,255)"/><g clip-path="url(#clip2)"/></g></g></g></g></g><g><path d="M32,416.3H358a16,16 0 0 1 16,16V744.8a16,16 0 0 1 -16,16H32a16,16 0 0 1 -16,-16V432.3a16,16 0 0 1 16,-16Z" fill="rgb(248,249,250)"/><path d="M32,416.8H358a15.5,15.5 0 0 1 15.5,15.5V744.8a15.5,15.5 0 0 1 -15.5,15.5H32a15.5,15.5 0 0 1 -15.5,-15.5V432.3a15.5,15.5 0 0 1 15.5,-15.5Z" fill="none" stroke="rgb(232,232,232)" stroke-width="1"/><g><g><g><text x="33" y="444.2" font-family="Inter" font-size="10" fill="rgb(131,131,131)" text-anchor="start" xml:space="preserve" letter-spacing="0.8">TURN BY TURN</text></g></g><g><g><g><path d="M49,460.3H341a16,16 0 0 1 16,16V498.3a16,16 0 0 1 -16,16H49a16,16 0 0 1 -16,-16V476.3a16,16 0 0 1 16,-16Z" fill="rgb(255,255,255)"/><path d="M49,460.8H341a15.5,15.5 0 0 1 15.5,15.5V498.3a15.5,15.5 0 0 1 -15.5,15.5H49a15.5,15.5 0 0 1 -15.5,-15.5V476.3a15.5,15.5 0 0 1 15.5,-15.5Z" fill="none" stroke="rgb(232,232,232)" stroke-width="1"/><g><g><g><g><svg xmlns="http://www.w3.org/2000/svg" width="16" height="16" viewBox="0 0 24 24" fill="none" stroke="rgb(32,32,32)" stroke-width="2" stroke-linecap="round" stroke-linejoin="round" aria-hidden="true" x="320" y="479.3"><path d="M4 16v-2.38C4 11.5 2.97 10.5 3 8c.03-2.72 1.49-6 4.5-6C9.37 2 10 3.8 10 5.5c0 3.11-2 5.66-2 8.68V16a2 2 0 1 1-4 0Z"/><path d="M20 20v-2.38c0-2.12 1.03-3.12 1-5.62-.03-2.72-1.49-6-4.5-6C14.63 6 14 7.8 14 9.5c0 3.11 2 5.66 2 8.68V20a2 2 0 1 0 4 0Z"/><path d="M16 17h4"/><path d="M4 13h4"/></svg></g></g></g><g><g><g><g clip-path="url(#clip3)"><text x="275.2" y="483.7" font-family="Tajawal" font-size="12.5" fill="rgb(32,32,32)" text-anchor="middle" xml:space="preserve" font-weight="700" direction="rtl">السادات</text><text x="240.7" y="483.7" font-family="Inter" font-size="12.5" fill="rgb(32,32,32)" text-anchor="middle" xml:space="preserve" font-weight="700" direction="rtl">←</text><text x="206.3" y="483.7" font-family="Tajawal" font-size="12.5" fill="rgb(32,32,32)" text-anchor="middle" xml:space="preserve" font-weight="700" direction="rtl">السادات</text></g></g><g><g><text x="74" y="499.1" font-family="Tajawal" font-size="10.5" fill="rgb(131,131,131)" text-anchor="start" xml:space="preserve">2 د مشي</text></g></g></g></g><g><svg xmlns="http://www.w3.org/2000/svg" width="16" height="16" viewBox="0 0 24 24" fill="none" stroke="rgb(32,32,32)" stroke-width="2" stroke-linecap="round" stroke-linejoin="round" aria-hidden="true" x="46" y="479.3"><path d="m9 18 6-6-6-6"/></svg></g></g></g><g><path d="M49,522.3H341a16,16 0 0 1 16,16V559a16,16 0 0 1 -16,16H49a16,16 0 0 1 -16,-16V538.3a16,16 0 0 1 16,-16Z" fill="rgb(255,255,255)"/><path d="M49,522.8H341a15.5,15.5 0 0 1 15.5,15.5V559a15.5,15.5 0 0 1 -15.5,15.5H49a15.5,15.5 0 0 1 -15.5,-15.5V538.3a15.5,15.5 0 0 1 15.5,-15.5Z" fill="none" stroke="rgb(232,232,232)" stroke-width="1"/><g><g><path d="M302,534.6H330a14,14 0 0 1 14,14V548.6a14,14 0 0 1 -14,14H302a14,14 0 0 1 -14,-14V548.6a14,14 0 0 1 14,-14Z" fill="rgb(220,38,38)" fill-opacity="0.08"/><path d="M302,535.1H330a13.5,13.5 0 0 1 13.5,13.5V548.6a13.5,13.5 0 0 1 -13.5,13.5H302a13.5,13.5 0 0 1 -13.5,-13.5V548.6a13.5,13.5 0 0 1 13.5,-13.5Z" fill="none" stroke="rgb(220,38,38)" stroke-width="1" stroke-opacity="0.19"/><g><g><svg viewBox="0 0 8 8" aria-hidden="true" x="299" y="542.6" width="12" height="12"><circle cx="4" cy="4" r="4" fill="#dc2626"/></svg></g><text x="317" y="552.8" font-family="Inter" font-size="12" fill="rgb(220,38,38)" text-anchor="start" xml:space="preserve" font-weight="700">L2</text></g></g><g><g><g><g clip-path="url(#clip4)"><text x="251.2" y="545.1" font-family="Tajawal" font-size="12.5" fill="rgb(32,32,32)" text-anchor="middle" xml:space="preserve" font-weight="700" direction="rtl">السادات</text><text x="216.7" y="545.1" font-family="Inter" font-size="12.5" fill="rgb(32,32,32)" text-anchor="middle" xml:space="preserve" font-weight="700" direction="rtl">←</text><text x="190.2" y="545.1" font-family="Tajawal" font-size="12.5" fill="rgb(32,32,32)" text-anchor="middle" xml:space="preserve" font-weight="700" direction="rtl">العتبة</text></g></g><g><g><text x="74" y="560.5" font-family="Tajawal" font-size="10.5" fill="rgb(131,131,131)" text-anchor="start" xml:space="preserve">3 محطة · 6 د</text><text x="84" y="560.5" font-family="Tajawal" font-size="10.5" fill="rgb(131,131,131)" text-anchor="start" xml:space="preserve">· 8 ج.م</text></g></g></g></g><g><svg xmlns="http://www.w3.org/2000/svg" width="16" height="16" viewBox="0 0 24 24" fill="none" stroke="rgb(32,32,32)" stroke-width="2" stroke-linecap="round" stroke-linejoin="round" aria-hidden="true" x="46" y="540.6"><path d="m9 18 6-6-6-6"/></svg></g></g></g><g><path d="M49,583H341a16,16 0 0 1 16,16V619.8a16,16 0 0 1 -16,16H49a16,16 0 0 1 -16,-16V599a16,16 0 0 1 16,-16Z" fill="rgb(255,255,255)"/><path d="M49,583.5H341a15.5,15.5 0 0 1 15.5,15.5V619.8a15.5,15.5 0 0 1 -15.5,15.5H49a15.5,15.5 0 0 1 -15.5,-15.5V599a15.5,15.5 0 0 1 15.5,-15.5Z" fill="none" stroke="rgb(232,232,232)" stroke-width="1"/><g><g><path d="M302,595.4H330a14,14 0 0 1 14,14V609.4a14,14 0 0 1 -14,14H302a14,14 0 0 1 -14,-14V609.4a14,14 0 0 1 14,-14Z" fill="rgb(22,163,74)" fill-opacity="0.08"/><path d="M302,595.9H330a13.5,13.5 0 0 1 13.5,13.5V609.4a13.5,13.5 0 0 1 -13.5,13.5H302a13.5,13.5 0 0 1 -13.5,-13.5V609.4a13.5,13.5 0 0 1 13.5,-13.5Z" fill="none" stroke="rgb(22,163,74)" stroke-width="1" stroke-opacity="0.19"/><g><g><svg viewBox="0 0 8 8" aria-hidden="true" x="299" y="603.4" width="12" height="12"><circle cx="4" cy="4" r="4" fill="#16a34a"/></svg></g><text x="317" y="613.5" font-family="Inter" font-size="12" fill="rgb(22,163,74)" text-anchor="start" xml:space="preserve" font-weight="700">L3</text></g></g><g><g><g><g clip-path="url(#clip5)"><text x="259.1" y="605.8" font-family="Tajawal" font-size="12.5" fill="rgb(32,32,32)" text-anchor="middle" xml:space="preserve" font-weight="700" direction="rtl">العتبة</text><text x="232.6" y="605.8" font-family="Inter" font-size="12.5" fill="rgb(32,32,32)" text-anchor="middle" xml:space="preserve" font-weight="700" direction="rtl">←</text><text x="184.2" y="605.8" font-family="Tajawal" font-size="12.5" fill="rgb(32,32,32)" text-anchor="middle" xml:space="preserve" font-weight="700" direction="rtl">عدلي منصور</text></g></g><g><g><text x="74" y="621.2" font-family="Tajawal" font-size="10.5" fill="rgb(131,131,131)" text-anchor="start" xml:space="preserve">19 محطة · 39 د</text><text x="90.7" y="621.2" font-family="Tajawal" font-size="10.5" fill="rgb(131,131,131)" text-anchor="start" xml:space="preserve">· 15 ج.م</text></g></g></g></g><g><svg xmlns="http://www.w3.org/2000/svg" width="16" height="16" viewBox="0 0 24 24" fill="none" stroke="rgb(32,32,32)" stroke-width="2" stroke-linecap="round" stroke-linejoin="round" aria-hidden="true" x="46" y="601.4"><path d="m9 18 6-6-6-6"/></svg></g></g></g><g><path d="M49,643.8H341a16,16 0 0 1 16,16V681.8a16,16 0 0 1 -16,16H49a16,16 0 0 1 -16,-16V659.8a16,16 0 0 1 16,-16Z" fill="rgb(255,255,255)"/><path d="M49,644.3H341a15.5,15.5 0 0 1 15.5,15.5V681.8a15.5,15.5 0 0 1 -15.5,15.5H49a15.5,15.5 0 0 1 -15.5,-15.5V659.8a15.5,15.5 0 0 1 15.5,-15.5Z" fill="none" stroke="rgb(232,232,232)" stroke-width="1"/><g><g><g><g><svg xmlns="http://www.w3.org/2000/svg" width="16" height="16" viewBox="0 0 24 24" fill="none" stroke="rgb(32,32,32)" stroke-width="2" stroke-linecap="round" stroke-linejoin="round" aria-hidden="true" x="320" y="662.8"><path d="M4 16v-2.38C4 11.5 2.97 10.5 3 8c.03-2.72 1.49-6 4.5-6C9.37 2 10 3.8 10 5.5c0 3.11-2 5.66-2 8.68V16a2 2 0 1 1-4 0Z"/><path d="M20 20v-2.38c0-2.12 1.03-3.12 1-5.62-.03-2.72-1.49-6-4.5-6C14.63 6 14 7.8 14 9.5c0 3.11 2 5.66 2 8.68V20a2 2 0 1 0 4 0Z"/><path d="M16 17h4"/><path d="M4 13h4"/></svg></g></g></g><g><g><g><g clip-path="url(#clip6)"><text x="261.2" y="667.2" font-family="Tajawal" font-size="12.5" fill="rgb(32,32,32)" text-anchor="middle" xml:space="preserve" font-weight="700" direction="rtl">عدلي منصور</text><text x="212.7" y="667.2" font-family="Inter" font-size="12.5" fill="rgb(32,32,32)" text-anchor="middle" xml:space="preserve" font-weight="700" direction="rtl">←</text><text x="164.3" y="667.2" font-family="Tajawal" font-size="12.5" fill="rgb(32,32,32)" text-anchor="middle" xml:space="preserve" font-weight="700" direction="rtl">عدلي منصور</text></g></g><g><g><text x="74" y="682.6" font-family="Tajawal" font-size="10.5" fill="rgb(131,131,131)" text-anchor="start" xml:space="preserve">2 د مشي</text></g></g></g></g><g><svg xmlns="http://www.w3.org/2000/svg" width="16" height="16" viewBox="0 0 24 24" fill="none" stroke="rgb(32,32,32)" stroke-width="2" stroke-linecap="round" stroke-linejoin="round" aria-hidden="true" x="46" y="662.8"><path d="m9 18 6-6-6-6"/></svg></g></g></g></g></g><g><path d="M33,709.8h324v1h-324Z" fill="rgb(232,232,232)"/><g><g><g><text x="289.7" y="737.4" font-family="Tajawal" font-size="12" fill="rgb(42,42,42)" text-anchor="middle" xml:space="preserve" font-weight="700" direction="rtl">إجمالي الأجرة الرسمية</text></g></g><g><g><text x="33" y="737.6" font-family="Tajawal" font-size="14" fill="rgb(32,32,32)" text-anchor="start" xml:space="preserve" font-weight="700">23 ج.م</text></g></g></g></g></g></g><g><g><g><svg xmlns="http://www.w3.org/2000/svg" width="14" height="14" viewBox="0 0 24 24" fill="none" stroke="rgb(32,32,32)" stroke-width="2" stroke-linecap="round" stroke-linejoin="round" aria-hidden="true" x="346" y="784.8"><path d="M8 3.1V7a4 4 0 0 0 8 0V3.1"/><path d="m9 15-1-1"/><path d="m15 15 1-1"/><path d="M9 19c-2.8 0-5-2.2-5-5v-4a8 8 0 0 1 16 0v4c0 2.8-2.2 5-5 5Z"/><path d="m8 19-2 3"/><path d="m16 19 2 3"/></svg></g><text x="205.7" y="796.7" font-family="Tajawal" font-size="11.5" fill="rgb(42,42,42)" text-anchor="middle" xml:space="preserve" direction="rtl">تبديل في محطة العتبة إلى مترو الخط الثالث للرصيف 1</text></g></g></g></g></g></g></g></g><g><path d="M0,2553h390v74h-390Z" fill="rgb(255,255,255)" fill-opacity="0.86"/><path d="M0.5,2553.5h389v73h-389Z" fill="none" stroke="rgb(32,32,32)" stroke-width="1" stroke-opacity="0.07"/><g><g><g><g><g><g><svg xmlns="http://www.w3.org/2000/svg" width="16" height="16" viewBox="0 0 24 24" fill="none" stroke="rgb(32,32,32)" stroke-width="2" stroke-linecap="round" stroke-linejoin="round" aria-hidden="true" x="328" y="2582"><path d="m21.73 18-8-14a2 2 0 0 0-3.48 0l-8 14A2 2 0 0 0 4 21h16a2 2 0 0 0 1.73-3"/><path d="M12 9v4"/><path d="M12 17h.01"/></svg></g><text x="274" y="2583.8" font-family="Cairo" font-size="14" fill="rgb(217,119,6)" text-anchor="middle" xml:space="preserve" font-weight="700" direction="rtl">محاكاة خروج</text><text x="274" y="2604.8" font-family="Cairo" font-size="14" fill="rgb(217,119,6)" text-anchor="middle" xml:space="preserve" font-weight="700" direction="rtl">عن المسار</text></g></g><g><path d="M41,2566H165a24,24 0 0 1 24,24V2590a24,24 0 0 1 -24,24H41a24,24 0 0 1 -24,-24V2590a24,24 0 0 1 24,-24Z" fill="rgb(32,32,32)"/><g><g><svg xmlns="http://www.w3.org/2000/svg" width="16" height="16" viewBox="0 0 24 24" fill="none" stroke="rgb(32,32,32)" stroke-width="2" stroke-linecap="round" stroke-linejoin="round" aria-hidden="true" x="137" y="2582"><path d="M20 6 9 17l-5-5"/></svg></g><text x="91" y="2594.3" font-family="Cairo" font-size="14" fill="rgb(255,255,255)" text-anchor="middle" xml:space="preserve" font-weight="700" direction="rtl">إنهاء الرحلة</text></g></g></g></g></g></g></g></g></g></g><g><path d="M0,2409.5h390v217h-390Z" fill="rgb(248,249,250)"/><path d="M0,2409.5h390v1h-390Z" fill="rgb(232,232,232)"/><g><g><g><g><g><g><svg viewBox="0 0 32 32" aria-hidden="true" x="288.2" y="2435.5" width="28" height="28"><rect width="32" height="32" rx="9" fill="#202020"/><path d="M8 21c4 0 4-10 8-10s4 10 8 10" stroke="#6647f0" stroke-width="3" fill="none" stroke-linecap="round"/><circle cx="8" cy="21" r="2.4" fill="#0091ff"/><circle cx="24" cy="21" r="2.4" fill="#ffffff"/></svg></g><g><g><g><g><text x="244.2" y="2447" font-family="Cairo" font-size="13" fill="rgb(32,32,32)" text-anchor="middle" xml:space="preserve" font-weight="900" direction="rtl">واصل مصر</text></g></g><g><g><text x="175" y="2461" font-family="Tajawal" font-size="11" fill="rgb(131,131,131)" text-anchor="middle" xml:space="preserve" direction="rtl">منصة النقل الذكي المتعدد — القاهرة الكبرى</text></g></g></g></g></g></g><g><g><text x="42.9" y="2491.5" font-family="Inter" font-size="10" fill="rgb(131,131,131)" text-anchor="start" xml:space="preserve" letter-spacing="0.8">GTFS RT READY · L1 L2 L3 L4 · LRT · MNR · BRT · ENR</text></g></g><g><g><g><g><text x="317.4" y="2524.6" font-family="Tajawal" font-size="12" fill="rgb(100,100,100)" text-anchor="middle" xml:space="preserve" font-weight="600" direction="rtl">الأجور الرسمية</text></g></g><g><g><text x="255" y="2524.6" font-family="Inter" font-size="12" fill="rgb(212,212,212)" text-anchor="middle" xml:space="preserve" font-weight="600" direction="rtl">|</text></g></g><g><g><text x="193.2" y="2524.6" font-family="Tajawal" font-size="12" fill="rgb(100,100,100)" text-anchor="middle" xml:space="preserve" font-weight="600" direction="rtl">تقارير المجتمع</text></g></g><g><g><text x="131.4" y="2524.6" font-family="Inter" font-size="12" fill="rgb(212,212,212)" text-anchor="middle" xml:space="preserve" font-weight="600" direction="rtl">|</text></g></g><g><g><text x="70.8" y="2524.6" font-family="Tajawal" font-size="12" fill="rgb(100,100,100)" text-anchor="middle" xml:space="preserve" font-weight="600" direction="rtl">غرفة العمليات</text></g></g></g></g></g></g><g><path d="M0,2553.5h390v1h-390Z" fill="rgb(232,232,232)"/><g><g><g><text x="29.6" y="2584.5" font-family="Inter" font-size="10" fill="rgb(131,131,131)" text-anchor="start" xml:space="preserve" letter-spacing="0.8">© 2025 WASEL EGYPT — NATIONAL MULTIMODAL TRANSIT</text><text x="165.2" y="2608.5" font-family="Inter" font-size="10" fill="rgb(131,131,131)" text-anchor="start" xml:space="preserve" letter-spacing="0.8">PLATFORM</text></g></g></g></g></g></g><g><g/></g><g><path d="M0,2633h390v58h-390Z" fill="rgb(255,255,255)" fill-opacity="0.86"/><path d="M0.5,2633.5h389v57h-389Z" fill="none" stroke="rgb(32,32,32)" stroke-width="1" stroke-opacity="0.07"/><g><g><g><g><g><g><g><g><svg xmlns="http://www.w3.org/2000/svg" width="18" height="18" viewBox="0 0 24 24" fill="none" stroke="rgb(32,32,32)" stroke-width="2" stroke-linecap="round" stroke-linejoin="round" aria-hidden="true" x="341.2" y="2646"><path d="M15 21v-8a1 1 0 0 0-1-1h-4a1 1 0 0 0-1 1v8"/><path d="M3 10a2 2 0 0 1 .709-1.528l7-5.999a2 2 0 0 1 2.582 0l7 5.999A2 2 0 0 1 21 10v9a2 2 0 0 1-2 2H5a2 2 0 0 1-2-2z"/></svg></g></g></g><g><g><text x="350.2" y="2681" font-family="Tajawal" font-size="10" fill="rgb(131,131,131)" text-anchor="middle" xml:space="preserve" font-weight="600" direction="rtl">الرئيسية</text></g></g></g></g><g><g><g><g><g><svg xmlns="http://www.w3.org/2000/svg" width="18" height="18" viewBox="0 0 24 24" fill="none" stroke="rgb(32,32,32)" stroke-width="2" stroke-linecap="round" stroke-linejoin="round" aria-hidden="true" x="263.6" y="2646"><circle cx="6" cy="19" r="3"/><path d="M9 19h8.5a3.5 3.5 0 0 0 0-7h-11a3.5 3.5 0 0 1 0-7H15"/><circle cx="18" cy="5" r="3"/></svg></g></g></g><g><g><text x="272.6" y="2681" font-family="Tajawal" font-size="10" fill="rgb(131,131,131)" text-anchor="middle" xml:space="preserve" font-weight="600" direction="rtl">التخطيط</text></g></g></g></g><g><g><g><g><g><svg xmlns="http://www.w3.org/2000/svg" width="18" height="18" viewBox="0 0 24 24" fill="none" stroke="rgb(32,32,32)" stroke-width="2" stroke-linecap="round" stroke-linejoin="round" aria-hidden="true" x="186" y="2646"><path d="M14.106 5.553a2 2 0 0 0 1.788 0l3.659-1.83A1 1 0 0 1 21 4.619v12.764a1 1 0 0 1-.553.894l-4.553 2.277a2 2 0 0 1-1.788 0l-4.212-2.106a2 2 0 0 0-1.788 0l-3.659 1.83A1 1 0 0 1 3 19.381V6.618a1 1 0 0 1 .553-.894l4.553-2.277a2 2 0 0 1 1.788 0z"/><path d="M15 5.764v15"/><path d="M9 3.236v15"/></svg></g></g></g><g><g><text x="195" y="2681" font-family="Tajawal" font-size="10" fill="rgb(131,131,131)" text-anchor="middle" xml:space="preserve" font-weight="600" direction="rtl">الخريطة</text></g></g></g></g><g><g><g><g><g><svg xmlns="http://www.w3.org/2000/svg" width="18" height="18" viewBox="0 0 24 24" fill="none" stroke="rgb(32,32,32)" stroke-width="2" stroke-linecap="round" stroke-linejoin="round" aria-hidden="true" x="108.4" y="2646"><path d="m19 21-7-4-7 4V5a2 2 0 0 1 2-2h10a2 2 0 0 1 2 2v16z"/></svg></g></g></g><g><g><text x="117.4" y="2681" font-family="Tajawal" font-size="10" fill="rgb(131,131,131)" text-anchor="middle" xml:space="preserve" font-weight="600" direction="rtl">رحلاتي</text></g></g></g></g><g><g><g><g><g><svg xmlns="http://www.w3.org/2000/svg" width="18" height="18" viewBox="0 0 24 24" fill="none" stroke="rgb(32,32,32)" stroke-width="2" stroke-linecap="round" stroke-linejoin="round" aria-hidden="true" x="30.8" y="2646"><circle cx="12" cy="8" r="5"/><path d="M20 21a8 8 0 0 0-16 0"/></svg></g></g></g><g><g><text x="39.8" y="2681" font-family="Tajawal" font-size="10" fill="rgb(131,131,131)" text-anchor="middle" xml:space="preserve" font-weight="600" direction="rtl">حسابي</text></g></g></g></g></g></g></g></g><g><g><g><path d="M346,2553H346a30,30 0 0 1 30,30V2583a30,30 0 0 1 -30,30H346a30,30 0 0 1 -30,-30V2583a30,30 0 0 1 30,-30Z M346,2555H346a28,28 0 0 1 28,28V2583a28,28 0 0 1 -28,28H346a28,28 0 0 1 -28,-28V2583a28,28 0 0 1 28,-28Z" fill="url(#grad7_conic)" fill-rule="evenodd"/><path d="M346,2555H346a28,28 0 0 1 28,28V2583a28,28 0 0 1 -28,28H346a28,28 0 0 1 -28,-28V2583a28,28 0 0 1 28,-28Z" fill="rgb(32,32,32)"/><g><g><svg xmlns="http://www.w3.org/2000/svg" width="20" height="20" viewBox="0 0 24 24" fill="none" stroke="rgb(32,32,32)" stroke-width="2" stroke-linecap="round" stroke-linejoin="round" aria-hidden="true" x="336" y="2573"><path d="M9.937 15.5A2 2 0 0 0 8.5 14.063l-6.135-1.582a.5.5 0 0 1 0-.962L8.5 9.936A2 2 0 0 0 9.937 8.5l1.582-6.135a.5.5 0 0 1 .963 0L14.063 8.5A2 2 0 0 0 15.5 9.937l6.135 1.581a.5.5 0 0 1 0 .964L15.5 14.063a2 2 0 0 0-1.437 1.437l-1.582 6.135a.5.5 0 0 1-.963 0z"/><path d="M20 3v4"/><path d="M22 5h-4"/><path d="M4 17v2"/><path d="M5 18H3"/></svg></g></g></g></g></g></g></g></svg>