<svg xmlns="http://www.w3.org/2000/svg" width="1440" height="948" viewBox="0 0 1440 948" fill="none"><defs><linearGradient id="grad1_bg" gradientUnits="userSpaceOnUse" x1="1071.2" y1="0" x2="1071.2" y2="948.4"><stop offset="24" stop-color="rgb(17,17,17)"/><stop offset="25" stop-color="rgb(0,0,0)"/></linearGradient><clipPath id="clip2"><path d="M702.5,0h737.5v948.4h-737.5Z"/></clipPath><clipPath id="clip3"><path d="M143.2,235.5H559.2a16,16 0 0 1 16,16V267.5a16,16 0 0 1 -16,16H143.2a16,16 0 0 1 -16,-16V251.5a16,16 0 0 1 16,-16Z"/></clipPath><clipPath id="clip4"><path d="M206.2,236.5h368v46h-368Z"/></clipPath><clipPath id="clip5"><path d="M143.2,325H559.2a16,16 0 0 1 16,16V357a16,16 0 0 1 -16,16H143.2a16,16 0 0 1 -16,-16V341a16,16 0 0 1 16,-16Z"/></clipPath></defs><rect x="0" y="0" width="1440" height="948" fill="rgb(255,255,255)"/><g><path d="M0,0h1440v948.4h-1440Z" fill="rgb(255,255,255)"/><g><g><g><g><path d="M0,0h1440v948.4h-1440Z" fill="rgb(255,255,255)"/><g><g><path d="M702.5,0h737.5v948.4h-737.5Z" fill="url(#grad1_bg)"/><g clip-path="url(#clip2)"><g clip-path="url(#clip2)"><g clip-path="url(#clip2)"><g clip-path="url(#clip2)"><g clip-path="url(#clip2)"><g clip-path="url(#clip2)"><svg viewBox="0 0 32 32" aria-hidden="true" x="1352" y="56" width="32" height="32"><rect width="32" height="32" rx="9" fill="#ffffff"/><path d="M8 21c4 0 4-10 8-10s4 10 8 10" stroke="#6647f0" stroke-width="3" fill="none" stroke-linecap="round"/><circle cx="8" cy="21" r="2.4" fill="#0091ff"/><circle cx="24" cy="21" r="2.4" fill="#202020"/></svg></g><g clip-path="url(#clip2)"><g clip-path="url(#clip2)"><g clip-path="url(#clip2)"><g clip-path="url(#clip2)"><text x="1316.5" y="71.6" font-family="Cairo" font-size="19" fill="rgb(255,255,255)" text-anchor="middle" xml:space="preserve" font-weight="900" direction="rtl">واصل</text><g clip-path="url(#clip2)"><g clip-path="url(#clip2)"><text x="1268" y="71.6" font-family="Cairo" font-size="19" fill="rgb(102,71,240)" text-anchor="middle" xml:space="preserve" font-weight="900" direction="rtl">مصر</text></g></g></g></g><g clip-path="url(#clip2)"><g clip-path="url(#clip2)"><text x="1249" y="86.1" font-family="Inter" font-size="9" fill="rgb(32,32,32)" text-anchor="start" xml:space="preserve" letter-spacing="0.7">WASEL EGYPT</text></g></g></g></g></g></g><g clip-path="url(#clip2)"><g clip-path="url(#clip2)"><text x="758.5" y="75.5" font-family="Inter" font-size="10" fill="rgb(32,32,32)" text-anchor="start" xml:space="preserve" letter-spacing="0.8">GREATER CAIRO · LIVE</text></g></g></g></g><g clip-path="url(#clip2)"><g clip-path="url(#clip2)"><g clip-path="url(#clip2)"><g clip-path="url(#clip2)"><text x="1213" y="164.2" font-family="Cairo" font-size="44" fill="rgb(255,255,255)" text-anchor="middle" xml:space="preserve" font-weight="900" direction="rtl">القاهرة الكبرى…</text><g clip-path="url(#clip2)"><g clip-path="url(#clip2)"><text x="940.5" y="164.2" font-family="Cairo" font-size="44" fill="rgb(102,71,240)" text-anchor="middle" xml:space="preserve" font-weight="900" direction="rtl">بلا ازدحام</text><text x="1324" y="223.6" font-family="Cairo" font-size="44" fill="rgb(102,71,240)" text-anchor="middle" xml:space="preserve" font-weight="900" direction="rtl">فكري</text></g></g></g></g><g clip-path="url(#clip2)"><g clip-path="url(#clip2)"><text x="1150.1" y="275.8" font-family="Tajawal" font-size="14.5" fill="rgb(32,32,32)" text-anchor="middle" xml:space="preserve" direction="rtl">منصة واحدة تجمع مترو الأنفاق، القطار الكهربائي الخفيف، المونوريل، الحافلات</text><text x="1167.9" y="307.8" font-family="Tajawal" font-size="14.5" fill="rgb(32,32,32)" text-anchor="middle" xml:space="preserve" direction="rtl">السريعة والسكك الحديدية — بأوقات حية، أجرة رسمية، وتنبيهات لحظية.</text></g></g><g opacity="0.9" clip-path="url(#clip2)"><g clip-path="url(#clip2)"><g opacity="0.9" clip-path="url(#clip2)"><svg viewBox="0 0 560 380" aria-hidden="true" x="808" y="350.8" width="576" height="390.8"><path d="M40 345 H520" stroke="rgba(255,255,255,0.14)" stroke-width="2.5" stroke-dasharray="3 9" fill="none"/><path d="M40 220 Q260 320 520 200" stroke="var(--color-brt)" stroke-width="3" fill="none" stroke-linecap="round"/><path d="M40 110 C160 110 220 150 300 150 S480 120 520 120" stroke="var(--color-l1)" stroke-width="3.5" fill="none" stroke-linecap="round"/><path d="M60 40 C120 140 260 180 340 250 S480 320 520 330" stroke="var(--color-l2)" stroke-width="3.5" fill="none" stroke-linecap="round"/><path d="M40 300 L180 230 L320 180 L520 90" stroke="var(--color-l3)" stroke-width="3.5" fill="none" stroke-linecap="round"/><path d="M300 340 L420 300 L520 270" stroke="var(--color-lrt)" stroke-width="3" fill="none" stroke-linecap="round"/><path d="M140 40 L260 80 L380 60" stroke="var(--color-mnr)" stroke-width="3" fill="none" stroke-linecap="round"/><path d="M160 112 C220 120 260 138 300 150" stroke="var(--color-interactive)" stroke-width="3" fill="none" stroke-linecap="round"/><circle cx="120" cy="110" r="4.5" fill="#0b0b0b" stroke="var(--color-l1)" stroke-width="2"/><circle cx="220" cy="128" r="4.5" fill="#0b0b0b" stroke="var(--color-l1)" stroke-width="2"/><circle cx="380" cy="136" r="4.5" fill="#0b0b0b" stroke="var(--color-l1)" stroke-width="2"/><circle cx="480" cy="124" r="4.5" fill="#0b0b0b" stroke="var(--color-l1)" stroke-width="2"/><circle cx="60" cy="40" r="4.5" fill="#0b0b0b" stroke="var(--color-l2)" stroke-width="2"/><circle cx="148" cy="118" r="4.5" fill="#0b0b0b" stroke="var(--color-l2)" stroke-width="2"/><circle cx="300" cy="178" r="4.5" fill="#0b0b0b" stroke="var(--color-l2)" stroke-width="2"/><circle cx="452" cy="296" r="4.5" fill="#0b0b0b" stroke="var(--color-l2)" stroke-width="2"/><circle cx="180" cy="230" r="4.5" fill="#0b0b0b" stroke="var(--color-l3)" stroke-width="2"/><circle cx="320" cy="180" r="4.5" fill="#0b0b0b" stroke="var(--color-l3)" stroke-width="2"/><circle cx="420" cy="138" r="4.5" fill="#0b0b0b" stroke="var(--color-l3)" stroke-width="2"/><circle cx="360" cy="314" r="4.5" fill="#0b0b0b" stroke="var(--color-lrt)" stroke-width="2"/><circle cx="140" cy="40" r="4.5" fill="#0b0b0b" stroke="var(--color-mnr)" stroke-width="2"/><circle cx="260" cy="80" r="4.5" fill="#0b0b0b" stroke="var(--color-mnr)" stroke-width="2"/><circle cx="120" cy="244" r="4.5" fill="#0b0b0b" stroke="var(--color-brt)" stroke-width="2"/><circle cx="300" cy="268" r="4.5" fill="#0b0b0b" stroke="var(--color-brt)" stroke-width="2"/><circle cx="300" cy="150" r="6.5" fill="#0b0b0b" stroke="#ffffff" stroke-width="2.5"/><circle cx="340" cy="250" r="6.5" fill="#0b0b0b" stroke="#ffffff" stroke-width="2.5"/><circle cx="300" cy="150" r="3" fill="var(--color-interactive)"/></svg></g></g></g></g></g><g clip-path="url(#clip2)"><g clip-path="url(#clip2)"><g clip-path="url(#clip2)"><g clip-path="url(#clip2)"><g clip-path="url(#clip2)"><g clip-path="url(#clip2)"><g clip-path="url(#clip2)"><g clip-path="url(#clip2)"><text x="1239.6" y="799.9" font-family="Inter" font-size="24" fill="rgb(255,255,255)" text-anchor="start" xml:space="preserve" font-weight="800">8</text></g></g><g clip-path="url(#clip2)"><g clip-path="url(#clip2)"><text x="1349.6" y="826.8" font-family="Tajawal" font-size="12" fill="rgb(32,32,32)" text-anchor="middle" xml:space="preserve" font-weight="500" direction="rtl">خطوط نشطة</text></g></g></g></g><g clip-path="url(#clip2)"><g clip-path="url(#clip2)"><g clip-path="url(#clip2)"><g clip-path="url(#clip2)"><text x="1079.2" y="799.9" font-family="Inter" font-size="24" fill="rgb(255,255,255)" text-anchor="start" xml:space="preserve" font-weight="800">94</text></g></g><g clip-path="url(#clip2)"><g clip-path="url(#clip2)"><text x="1186.7" y="826.8" font-family="Tajawal" font-size="12" fill="rgb(32,32,32)" text-anchor="middle" xml:space="preserve" font-weight="500" direction="rtl">محطة مترابطة</text></g></g></g></g><g clip-path="url(#clip2)"><g clip-path="url(#clip2)"><g clip-path="url(#clip2)"><g clip-path="url(#clip2)"><text x="918.8" y="799.9" font-family="Inter" font-size="24" fill="rgb(255,255,255)" text-anchor="start" xml:space="preserve" font-weight="800">3.9M</text></g></g><g clip-path="url(#clip2)"><g clip-path="url(#clip2)"><text x="1036.5" y="826.8" font-family="Tajawal" font-size="12" fill="rgb(32,32,32)" text-anchor="middle" xml:space="preserve" font-weight="500" direction="rtl">ركاب يوميًا</text></g></g></g></g><g clip-path="url(#clip2)"><g clip-path="url(#clip2)"><g clip-path="url(#clip2)"><g clip-path="url(#clip2)"><text x="758.5" y="799.9" font-family="Inter" font-size="24" fill="rgb(255,255,255)" text-anchor="start" xml:space="preserve" font-weight="800">94.6%</text></g></g><g clip-path="url(#clip2)"><g clip-path="url(#clip2)"><text x="868.1" y="826.8" font-family="Tajawal" font-size="12" fill="rgb(32,32,32)" text-anchor="middle" xml:space="preserve" font-weight="500" direction="rtl">انتظام الشبكة</text></g></g></g></g></g></g><g clip-path="url(#clip2)"><g clip-path="url(#clip2)"><g clip-path="url(#clip2)"><path d="M1266,856.1H1365.6a17.9,17.9 0 0 1 17.9,17.9V874a17.9,17.9 0 0 1 -17.9,17.9H1266a17.9,17.9 0 0 1 -17.9,-17.9V874a17.9,17.9 0 0 1 17.9,-17.9Z" fill="none" stroke="rgb(232,232,232)" stroke-width="1"/><g clip-path="url(#clip2)"><g clip-path="url(#clip2)"><svg xmlns="http://www.w3.org/2000/svg" width="16" height="16" viewBox="0 0 24 24" fill="none" stroke="rgb(32,32,32)" stroke-width="2" stroke-linecap="round" stroke-linejoin="round" aria-hidden="true" x="1351" y="866"><path d="M20 13c0 5-3.5 7.5-7.66 8.95a1 1 0 0 1-.67-.01C7.5 20.5 4 18 4 13V6a1 1 0 0 1 1-1c2 0 4.5-1.2 6.24-2.72a1.17 1.17 0 0 1 1.52 0C14.51 3.81 17 5 19 5a1 1 0 0 1 1 1z"/><path d="m9 12 2 2 4-4"/></svg></g><text x="1303.8" y="877.4" font-family="Tajawal" font-size="12.5" fill="rgb(32,32,32)" text-anchor="middle" xml:space="preserve" font-weight="700" direction="rtl">اتصال مشفر</text></g></g><g clip-path="url(#clip2)"><path d="M1116.8,856.1H1217.2a17.9,17.9 0 0 1 17.9,17.9V874a17.9,17.9 0 0 1 -17.9,17.9H1116.8a17.9,17.9 0 0 1 -17.9,-17.9V874a17.9,17.9 0 0 1 17.9,-17.9Z" fill="none" stroke="rgb(232,232,232)" stroke-width="1"/><g clip-path="url(#clip2)"><g clip-path="url(#clip2)"><svg xmlns="http://www.w3.org/2000/svg" width="16" height="16" viewBox="0 0 24 24" fill="none" stroke="rgb(32,32,32)" stroke-width="2" stroke-linecap="round" stroke-linejoin="round" aria-hidden="true" x="1202.6" y="866"><rect width="18" height="11" x="3" y="11" rx="2" ry="2"/><path d="M7 11V7a5 5 0 0 1 10 0v4"/></svg></g><text x="1155" y="877.4" font-family="Tajawal" font-size="12.5" fill="rgb(32,32,32)" text-anchor="middle" xml:space="preserve" font-weight="700" direction="rtl">بياناتك محلية</text></g></g></g></g></g></g><g clip-path="url(#clip2)"><g clip-path="url(#clip2)"/></g></g></g><g><g><g><g><g><g><g><g><text x="351.2" y="57.8" font-family="Cairo" font-size="24" fill="rgb(32,32,32)" text-anchor="middle" xml:space="preserve" font-weight="900" direction="rtl">مرحبًا بك في واصل مصر</text></g></g><g><g><text x="351.2" y="94.7" font-family="Tajawal" font-size="13.5" fill="rgb(100,100,100)" text-anchor="middle" xml:space="preserve" direction="rtl">بوابتك الموحّدة إلى شبكة نقل القاهرة الكبرى</text></g></g></g></g><g><g><g><path d="M152.2,136H550.2a25,25 0 0 1 25,25V161a25,25 0 0 1 -25,25H152.2a25,25 0 0 1 -25,-25V161a25,25 0 0 1 25,-25Z" fill="rgb(248,249,250)"/><path d="M152.2,136.5H550.2a24.5,24.5 0 0 1 24.5,24.5V161a24.5,24.5 0 0 1 -24.5,24.5H152.2a24.5,24.5 0 0 1 -24.5,-24.5V161a24.5,24.5 0 0 1 24.5,-24.5Z" fill="none" stroke="rgb(232,232,232)" stroke-width="1"/><g><g><path d="M373.2,141H550.2a20,20 0 0 1 20,20V161a20,20 0 0 1 -20,20H373.2a20,20 0 0 1 -20,-20V161a20,20 0 0 1 20,-20Z" fill="rgb(32,32,32)"/><g><text x="461.7" y="165.2" font-family="Tajawal" font-size="13" fill="rgb(255,255,255)" text-anchor="middle" xml:space="preserve" font-weight="700" direction="rtl">تسجيل الدخول</text></g></g><g><g><text x="240.7" y="165.2" font-family="Tajawal" font-size="13" fill="rgb(100,100,100)" text-anchor="middle" xml:space="preserve" font-weight="700" direction="rtl">حساب جديد</text></g></g></g></g><g><g><g><g><g><g><text x="533.6" y="224" font-family="Tajawal" font-size="13" fill="rgb(42,42,42)" text-anchor="middle" xml:space="preserve" font-weight="700" direction="rtl">رقم الموبايل</text></g></g><g><path d="M143.2,235.5H559.2a16,16 0 0 1 16,16V267.5a16,16 0 0 1 -16,16H143.2a16,16 0 0 1 -16,-16V251.5a16,16 0 0 1 16,-16Z" fill="rgb(255,255,255)"/><path d="M143.2,236H559.2a15.5,15.5 0 0 1 15.5,15.5V267.5a15.5,15.5 0 0 1 -15.5,15.5H143.2a15.5,15.5 0 0 1 -15.5,-15.5V251.5a15.5,15.5 0 0 1 15.5,-15.5Z" fill="none" stroke="rgb(232,232,232)" stroke-width="1"/><g clip-path="url(#clip3)"><g clip-path="url(#clip3)"><path d="M128.2,236.5h78v46h-78Z" fill="rgb(248,249,250)"/><path d="M205.2,236.5h1v46h-1Z" fill="rgb(232,232,232)"/><g clip-path="url(#clip3)"><g clip-path="url(#clip3)"><svg xmlns="http://www.w3.org/2000/svg" width="14" height="14" viewBox="0 0 24 24" fill="none" stroke="rgb(32,32,32)" stroke-width="2" stroke-linecap="round" stroke-linejoin="round" aria-hidden="true" x="142.2" y="252.5"><path d="M13.832 16.568a1 1 0 0 0 1.213-.303l.355-.465A2 2 0 0 1 17 15h3a2 2 0 0 1 2 2v3a2 2 0 0 1-2 2A18 18 0 0 1 2 4a2 2 0 0 1 2-2h3a2 2 0 0 1 2 2v3a2 2 0 0 1-.8 1.6l-.468.351a1 1 0 0 0-.292 1.233 14 14 0 0 0 6.392 6.384"/></svg></g><text x="162.2" y="263.7" font-family="Inter" font-size="13" fill="rgb(42,42,42)" text-anchor="start" xml:space="preserve" font-weight="700">+20</text></g></g><g clip-path="url(#clip3)"><g clip-path="url(#clip4)"><text x="220.2" y="264.7" font-family="Inter" font-size="15" font-weight="700" fill="rgb(179,179,179)" text-anchor="start">100 123 4567</text></g></g></g></g></g></g><g><g><g><g><g><g><text x="537.4" y="313.5" font-family="Tajawal" font-size="13" fill="rgb(42,42,42)" text-anchor="middle" xml:space="preserve" font-weight="700" direction="rtl">كلمة المرور</text></g></g><g><g><text x="187.3" y="312.7" font-family="Tajawal" font-size="12.5" fill="rgb(0,145,255)" text-anchor="middle" xml:space="preserve" font-weight="700" direction="rtl">نسيت كلمة المرور؟</text></g></g></g></g><g><g><g><path d="M143.2,325H559.2a16,16 0 0 1 16,16V357a16,16 0 0 1 -16,16H143.2a16,16 0 0 1 -16,-16V341a16,16 0 0 1 16,-16Z" fill="rgb(255,255,255)"/><path d="M143.2,325.5H559.2a15.5,15.5 0 0 1 15.5,15.5V357a15.5,15.5 0 0 1 -15.5,15.5H143.2a15.5,15.5 0 0 1 -15.5,-15.5V341a15.5,15.5 0 0 1 15.5,-15.5Z" fill="none" stroke="rgb(232,232,232)" stroke-width="1"/><g clip-path="url(#clip5)"><text x="530.2" y="353.8" font-family="Inter" font-size="14" font-weight="500" fill="rgb(179,179,179)" text-anchor="end">••••••••</text></g></g><g><svg xmlns="http://www.w3.org/2000/svg" width="16" height="16" viewBox="0 0 24 24" fill="none" stroke="rgb(32,32,32)" stroke-width="2" stroke-linecap="round" stroke-linejoin="round" aria-hidden="true" x="543.2" y="341"><path d="M2.586 17.414A2 2 0 0 0 2 18.828V21a1 1 0 0 0 1 1h3a1 1 0 0 0 1-1v-1a1 1 0 0 1 1-1h1a1 1 0 0 0 1-1v-1a1 1 0 0 1 1-1h.172a2 2 0 0 0 1.414-.586l.814-.814a6.5 6.5 0 1 0-4-4z"/><circle cx="16.5" cy="7.5" r=".5" fill="rgb(32,32,32)"/></svg></g><g><g><g><svg xmlns="http://www.w3.org/2000/svg" width="16" height="16" viewBox="0 0 24 24" fill="none" stroke="rgb(32,32,32)" stroke-width="2" stroke-linecap="round" stroke-linejoin="round" aria-hidden="true" x="147.2" y="341"><path d="M2.062 12.348a1 1 0 0 1 0-.696 10.75 10.75 0 0 1 19.876 0 1 1 0 0 1 0 .696 10.75 10.75 0 0 1-19.876 0"/><circle cx="12" cy="12" r="3"/></svg></g></g></g></g></g></g></g><g><path d="M151.2,397H551.2a24,24 0 0 1 24,24V421a24,24 0 0 1 -24,24H151.2a24,24 0 0 1 -24,-24V421a24,24 0 0 1 24,-24Z" fill="rgb(32,32,32)"/><g><text x="363.2" y="425.3" font-family="Cairo" font-size="14" fill="rgb(255,255,255)" text-anchor="middle" xml:space="preserve" font-weight="700" direction="rtl">دخول</text><g><svg xmlns="http://www.w3.org/2000/svg" width="16" height="16" viewBox="0 0 24 24" fill="none" stroke="rgb(32,32,32)" stroke-width="2" stroke-linecap="round" stroke-linejoin="round" aria-hidden="true" x="321.2" y="413"><path d="m12 19-7-7 7-7"/><path d="M19 12H5"/></svg></g></g></g><g><g><g><path d="M367.8,473.5h207.4v1h-207.4Z" fill="rgb(232,232,232)"/><g/></g><g><g><text x="351.2" y="478.1" font-family="Tajawal" font-size="12" fill="rgb(131,131,131)" text-anchor="middle" xml:space="preserve" font-weight="500" direction="rtl">أو</text></g></g><g><path d="M127.2,473.5h207.4v1h-207.4Z" fill="rgb(232,232,232)"/><g/></g></g></g><g><path d="M151.2,503.5H551.2a23.5,23.5 0 0 1 23.5,23.5V527a23.5,23.5 0 0 1 -23.5,23.5H151.2a23.5,23.5 0 0 1 -23.5,-23.5V527a23.5,23.5 0 0 1 23.5,-23.5Z" fill="none" stroke="rgb(232,232,232)" stroke-width="1"/><g><text x="363.2" y="531.3" font-family="Cairo" font-size="14" fill="rgb(42,42,42)" text-anchor="middle" xml:space="preserve" font-weight="700" direction="rtl">الدخول كزائر — تخطيط الرحلات دون تسجيل</text><g><svg xmlns="http://www.w3.org/2000/svg" width="16" height="16" viewBox="0 0 24 24" fill="none" stroke="rgb(32,32,32)" stroke-width="2" stroke-linecap="round" stroke-linejoin="round" aria-hidden="true" x="200.2" y="519"><path d="M5 12h14"/><path d="m12 5 7 7-7 7"/></svg></g></g></g></g></g></g></g><g><g><g><g><g><svg xmlns="http://www.w3.org/2000/svg" width="14" height="14" viewBox="0 0 24 24" fill="none" stroke="rgb(32,32,32)" stroke-width="2" stroke-linecap="round" stroke-linejoin="round" aria-hidden="true" x="482.1" y="901.9"><path d="M20 13c0 5-3.5 7.5-7.66 8.95a1 1 0 0 1-.67-.01C7.5 20.5 4 18 4 13V6a1 1 0 0 1 1-1c2 0 4.5-1.2 6.24-2.72a1.17 1.17 0 0 1 1.52 0C14.51 3.81 17 5 19 5a1 1 0 0 1 1 1z"/><path d="m9 12 2 2 4-4"/></svg></g><g><g><text x="206.4" y="912.3" font-family="Inter" font-size="10" fill="rgb(131,131,131)" text-anchor="start" xml:space="preserve" letter-spacing="0.8">SANCTUM TOKEN AUTH · AES-256 · +20 EGYPT</text></g></g></g></g></g></g></g></g></g></g></g></g></g></g></g></g></svg>