<svg xmlns="http://www.w3.org/2000/svg" width="1440" height="1901" viewBox="0 0 1440 1901" fill="none"><defs><linearGradient id="grad1_conic" gradientUnits="userSpaceOnUse" x1="688.4" y1="488.1" x2="1296" y2="488.1"><stop offset="0" stop-color="rgb(125,91,231)"/><stop offset="30" stop-color="rgb(250,36,206)"/><stop offset="55" stop-color="rgb(253,154,70)"/><stop offset="100" stop-color="rgb(0,145,255)"/></linearGradient><clipPath id="clip2"><path d="M712.4,368.8H1272a24,24 0 0 1 24,24V583.5a24,24 0 0 1 -24,24H712.4a24,24 0 0 1 -24,-24V392.8a24,24 0 0 1 24,-24Z"/></clipPath><clipPath id="clip3"><path d="M160,1195.8H1280a16,16 0 0 1 16,16V1547a16,16 0 0 1 -16,16H160a16,16 0 0 1 -16,-16V1211.8a16,16 0 0 1 16,-16Z"/></clipPath><clipPath id="clip4"><path d="M213,1235h1006v18h-1006Z"/></clipPath><clipPath id="clip5"><path d="M213,1308.3h1006v18h-1006Z"/></clipPath><clipPath id="clip6"><path d="M213,1381.5h1006v18h-1006Z"/></clipPath><clipPath id="clip7"><path d="M213,1454.8h1006v18h-1006Z"/></clipPath><clipPath id="clip8"><path d="M236.8,1516.5h41.2v18.8h-41.2Z"/></clipPath><linearGradient id="grad9_conic" gradientUnits="userSpaceOnUse" x1="1360" y1="1841" x2="1416" y2="1841"><stop offset="0" stop-color="rgb(125,91,231)"/><stop offset="30" stop-color="rgb(250,36,206)"/><stop offset="55" stop-color="rgb(253,154,70)"/><stop offset="100" stop-color="rgb(0,145,255)"/></linearGradient></defs><rect x="0" y="0" width="1440" height="1901" fill="rgb(255,255,255)"/><g><path d="M0,0h1440v1900.5h-1440Z" fill="rgb(255,255,255)"/><g><g><path d="M0,0h1440v66h-1440Z" fill="rgb(255,255,255)" fill-opacity="0.86"/><path d="M0.5,0.5h1439v65h-1439Z" fill="none" stroke="rgb(32,32,32)" stroke-width="1" stroke-opacity="0.07"/><g><g><g><g><g><g><g><g><svg viewBox="0 0 32 32" aria-hidden="true" x="1264" y="13.5" width="32" height="32"><rect width="32" height="32" rx="9" fill="#202020"/><path d="M8 21c4 0 4-10 8-10s4 10 8 10" stroke="#6647f0" stroke-width="3" fill="none" stroke-linecap="round"/><circle cx="8" cy="21" r="2.4" fill="#0091ff"/><circle cx="24" cy="21" r="2.4" fill="#ffffff"/></svg></g><g><g><g><g><text x="1228.5" y="29.1" font-family="Cairo" font-size="19" fill="rgb(32,32,32)" text-anchor="middle" xml:space="preserve" font-weight="900" direction="rtl">واصل</text><g><g><text x="1180" y="29.1" font-family="Cairo" font-size="19" fill="rgb(102,71,240)" text-anchor="middle" xml:space="preserve" font-weight="900" direction="rtl">مصر</text></g></g></g></g><g><g><text x="1172.3" y="43.6" font-family="Inter" font-size="9" fill="rgb(131,131,131)" text-anchor="start" xml:space="preserve" letter-spacing="0.7">WASEL EGYPT</text></g></g></g></g></g></g></g></g><g><g><g><g><text x="987.4" y="37.5" font-family="Tajawal" font-size="13.5" fill="rgb(42,42,42)" text-anchor="middle" xml:space="preserve" font-weight="700" direction="rtl">الرئيسية</text></g></g><g><g><text x="880.2" y="37.5" font-family="Tajawal" font-size="13.5" fill="rgb(42,42,42)" text-anchor="middle" xml:space="preserve" font-weight="700" direction="rtl">تخطيط الرحلة</text></g></g><g><g><g><g><text x="773.5" y="37.5" font-family="Tajawal" font-size="13.5" fill="rgb(42,42,42)" text-anchor="middle" xml:space="preserve" font-weight="700" direction="rtl">الشبكات</text><g><svg xmlns="http://www.w3.org/2000/svg" width="14" height="14" viewBox="0 0 24 24" fill="none" stroke="rgb(32,32,32)" stroke-width="2" stroke-linecap="round" stroke-linejoin="round" aria-hidden="true" x="727.7" y="26"><path d="m6 9 6 6 6-6"/></svg></g></g></g></g></g><g><g><text x="668.6" y="37.5" font-family="Tajawal" font-size="13.5" fill="rgb(42,42,42)" text-anchor="middle" xml:space="preserve" font-weight="700" direction="rtl">الخريطة</text></g></g><g><g><text x="589.2" y="37.5" font-family="Tajawal" font-size="13.5" fill="rgb(42,42,42)" text-anchor="middle" xml:space="preserve" font-weight="700" direction="rtl">الأجور</text></g></g><g><g><text x="510.7" y="37.5" font-family="Tajawal" font-size="13.5" fill="rgb(42,42,42)" text-anchor="middle" xml:space="preserve" font-weight="700" direction="rtl">المجتمع</text></g></g></g></g><g><g><g><g><g><svg xmlns="http://www.w3.org/2000/svg" width="18" height="18" viewBox="0 0 24 24" fill="none" stroke="rgb(32,32,32)" stroke-width="2.2" stroke-linecap="round" stroke-linejoin="round" aria-hidden="true" x="310" y="24"><path d="M10.268 21a2 2 0 0 0 3.464 0"/><path d="M3.262 15.326A1 1 0 0 0 4 17h16a1 1 0 0 0 .74-1.673C19.41 13.956 18 12.499 18 8A6 6 0 0 0 6 8c0 4.499-1.411 5.956-2.738 7.326"/></svg></g><g><path d="M311,21H311a4,4 0 0 1 4,4V25a4,4 0 0 1 -4,4H311a4,4 0 0 1 -4,-4V25a4,4 0 0 1 4,-4Z" fill="rgb(220,38,38)"/><g/></g></g></g><g><path d="M271,13H271a20,20 0 0 1 20,20V33a20,20 0 0 1 -20,20H271a20,20 0 0 1 -20,-20V33a20,20 0 0 1 20,-20Z" fill="rgb(248,249,250)"/><g><text x="271" y="36.7" font-family="Cairo" font-size="13" fill="rgb(42,42,42)" text-anchor="middle" xml:space="preserve" font-weight="900" direction="rtl">م</text></g></g><g><path d="M164,13H223a20,20 0 0 1 20,20V33a20,20 0 0 1 -20,20H164a20,20 0 0 1 -20,-20V33a20,20 0 0 1 20,-20Z" fill="rgb(32,32,32)"/><g><text x="193.5" y="36.7" font-family="Cairo" font-size="13" fill="rgb(255,255,255)" text-anchor="middle" xml:space="preserve" font-weight="700" direction="rtl">ابدأ رحلتك</text></g></g></g></g></g></g></g></g><g><g><g><g><g><g><g><g><g><g><text x="1176.8" y="123" font-family="Inter" font-size="10" fill="rgb(131,131,131)" text-anchor="start" xml:space="preserve" letter-spacing="0.8">PROFILE &amp; SETTINGS</text></g></g><g><g><text x="1108.5" y="168.4" font-family="Cairo" font-size="30" fill="rgb(32,32,32)" text-anchor="middle" xml:space="preserve" font-weight="900" direction="rtl">الملف الشخصي والإعدادات</text></g></g></g></g><g><path d="M160,149.5H256a15.5,15.5 0 0 1 15.5,15.5V165a15.5,15.5 0 0 1 -15.5,15.5H160a15.5,15.5 0 0 1 -15.5,-15.5V165a15.5,15.5 0 0 1 15.5,-15.5Z" fill="none" stroke="rgb(232,232,232)" stroke-width="1"/><g><g><svg xmlns="http://www.w3.org/2000/svg" width="16" height="16" viewBox="0 0 24 24" fill="none" stroke="rgb(32,32,32)" stroke-width="2" stroke-linecap="round" stroke-linejoin="round" aria-hidden="true" x="241" y="157"><path d="M21.174 6.812a1 1 0 0 0-3.986-3.987L3.842 16.174a2 2 0 0 0-.5.83l-1.321 4.352a.5.5 0 0 0 .623.622l4.353-1.32a2 2 0 0 0 .83-.497z"/><path d="m15 5 4 4"/></svg></g><text x="196" y="168.6" font-family="Cairo" font-size="12" fill="rgb(32,32,32)" text-anchor="middle" xml:space="preserve" font-weight="700" direction="rtl">تعديل الملف</text></g></g></g></g><g><g><g><path d="M160,209H1280a16,16 0 0 1 16,16V324.8a16,16 0 0 1 -16,16H160a16,16 0 0 1 -16,-16V225a16,16 0 0 1 16,-16Z" fill="rgb(255,255,255)"/><path d="M160,209.5H1280a15.5,15.5 0 0 1 15.5,15.5V324.8a15.5,15.5 0 0 1 -15.5,15.5H160a15.5,15.5 0 0 1 -15.5,-15.5V225a15.5,15.5 0 0 1 15.5,-15.5Z" fill="none" stroke="rgb(232,232,232)" stroke-width="1"/><g><g><g><g><path d="M1231,234.9H1231a40,40 0 0 1 40,40V274.9a40,40 0 0 1 -40,40H1231a40,40 0 0 1 -40,-40V274.9a40,40 0 0 1 40,-40Z" fill="rgb(32,32,32)"/><g><text x="1212.5" y="283.3" font-family="Tajawal" font-size="26" fill="rgb(255,255,255)" text-anchor="start" xml:space="preserve" font-weight="900">م أ</text></g></g><g><path d="M1201,292.9H1201a12,12 0 0 1 12,12V304.9a12,12 0 0 1 -12,12H1201a12,12 0 0 1 -12,-12V304.9a12,12 0 0 1 12,-12Z" fill="rgb(0,192,122)"/><path d="M1201,293.9H1201a11,11 0 0 1 11,11V304.9a11,11 0 0 1 -11,11H1201a11,11 0 0 1 -11,-11V304.9a11,11 0 0 1 11,-11Z" fill="none" stroke="rgb(232,232,232)" stroke-width="2"/><g><g><svg xmlns="http://www.w3.org/2000/svg" width="14" height="14" viewBox="0 0 24 24" fill="none" stroke="rgb(32,32,32)" stroke-width="2" stroke-linecap="round" stroke-linejoin="round" aria-hidden="true" x="1194" y="297.9"><path d="M3.85 8.62a4 4 0 0 1 4.78-4.77 4 4 0 0 1 6.74 0 4 4 0 0 1 4.78 4.78 4 4 0 0 1 0 6.74 4 4 0 0 1-4.77 4.78 4 4 0 0 1-6.75 0 4 4 0 0 1-4.78-4.77 4 4 0 0 1 0-6.76Z"/><path d="m9 12 2 2 4-4"/></svg></g></g></g></g></g><g><g><g><g><g><g><text x="1122" y="254.6" font-family="Cairo" font-size="19" fill="rgb(32,32,32)" text-anchor="middle" xml:space="preserve" font-weight="900" direction="rtl">محمد أحمد</text></g></g><g><path d="M976.5,235.5H1049.8a12.8,12.8 0 0 1 12.8,12.8V248.3a12.8,12.8 0 0 1 -12.7,12.8H976.5a12.8,12.8 0 0 1 -12.7,-12.7V248.3a12.8,12.8 0 0 1 12.8,-12.7Z" fill="none" stroke="rgb(232,232,232)" stroke-width="1"/><g><g><svg xmlns="http://www.w3.org/2000/svg" width="12" height="12" viewBox="0 0 24 24" fill="none" stroke="rgb(32,32,32)" stroke-width="2" stroke-linecap="round" stroke-linejoin="round" aria-hidden="true" x="1040" y="242.3"><path d="M3.85 8.62a4 4 0 0 1 4.78-4.77 4 4 0 0 1 6.74 0 4 4 0 0 1 4.78 4.78 4 4 0 0 1 0 6.74 4 4 0 0 1-4.77 4.78 4 4 0 0 1-6.75 0 4 4 0 0 1-4.78-4.77 4 4 0 0 1 0-6.76Z"/><path d="m9 12 2 2 4-4"/></svg></g><text x="1004.1" y="251.3" font-family="Tajawal" font-size="11" fill="rgb(0,192,122)" text-anchor="middle" xml:space="preserve" font-weight="700" direction="rtl">راكب موثّق</text></g></g></g></g><g><g><text x="283.1" y="283.2" font-family="Inter" font-size="13.5" fill="rgb(100,100,100)" text-anchor="start" xml:space="preserve" font-weight="700">+20 100 123 4567</text></g></g><g><g><g><svg xmlns="http://www.w3.org/2000/svg" width="14" height="14" viewBox="0 0 24 24" fill="none" stroke="rgb(32,32,32)" stroke-width="2" stroke-linecap="round" stroke-linejoin="round" aria-hidden="true" x="1157" y="294.8"><path d="m22 7-8.991 5.727a2 2 0 0 1-2.009 0L2 7"/><rect x="2" y="4" width="20" height="16" rx="2"/></svg></g><g><g><text x="951.8" y="305.9" font-family="Inter" font-size="12" fill="rgb(100,100,100)" text-anchor="start" xml:space="preserve">mohamed.ahmed@example.com</text></g></g></g></g></g></g><g><g><g><g><text x="169" y="255.1" font-family="Inter" font-size="10" fill="rgb(131,131,131)" text-anchor="start" xml:space="preserve" letter-spacing="0.8">MEMBER SINCE</text></g></g><g><g><text x="169" y="279.1" font-family="Inter" font-size="13" fill="rgb(42,42,42)" text-anchor="start" xml:space="preserve" font-weight="700">MARCH 2024</text></g></g><g><g><text x="169" y="301.6" font-family="Inter" font-size="10" fill="rgb(179,179,179)" text-anchor="start" xml:space="preserve" letter-spacing="0.8">TRUST 98 / 100</text></g></g></g></g></g></g><g><g><g><path d="M712.4,366.8H1272a26,26 0 0 1 26,26V583.5a26,26 0 0 1 -26,26H712.4a26,26 0 0 1 -26,-26V392.8a26,26 0 0 1 26,-26Z M712.4,368.8H1272a24,24 0 0 1 24,24V583.5a24,24 0 0 1 -24,24H712.4a24,24 0 0 1 -24,-24V392.8a24,24 0 0 1 24,-24Z" fill="url(#grad1_conic)" fill-rule="evenodd"/><g><g><path d="M712.4,368.8H1272a24,24 0 0 1 24,24V583.5a24,24 0 0 1 -24,24H712.4a24,24 0 0 1 -24,-24V392.8a24,24 0 0 1 24,-24Z" fill="rgb(32,32,32)"/><g clip-path="url(#clip2)"><g clip-path="url(#clip2)"><g clip-path="url(#clip2)"><g clip-path="url(#clip2)"><g clip-path="url(#clip2)"><g clip-path="url(#clip2)"><g clip-path="url(#clip2)"><g clip-path="url(#clip2)"><g clip-path="url(#clip2)"><g clip-path="url(#clip2)"><svg xmlns="http://www.w3.org/2000/svg" width="18" height="18" viewBox="0 0 24 24" fill="none" stroke="rgb(32,32,32)" stroke-width="2" stroke-linecap="round" stroke-linejoin="round" aria-hidden="true" x="1245" y="402.8"><path d="M19 7V4a1 1 0 0 0-1-1H5a2 2 0 0 0 0 4h15a1 1 0 0 1 1 1v4h-3a2 2 0 0 0 0 4h3a1 1 0 0 0 1-1v-2a1 1 0 0 0-1-1"/><path d="M3 5v14a2 2 0 0 0 2 2h15a1 1 0 0 0 1-1v-4"/></svg></g></g></g><g clip-path="url(#clip2)"><g clip-path="url(#clip2)"><g clip-path="url(#clip2)"><g clip-path="url(#clip2)"><text x="1180.5" y="407.6" font-family="Cairo" font-size="14" fill="rgb(255,255,255)" text-anchor="middle" xml:space="preserve" font-weight="900" direction="rtl">محفظة واصل</text></g></g><g clip-path="url(#clip2)"><g clip-path="url(#clip2)"><text x="1129.5" y="426.7" font-family="Inter" font-size="10" fill="rgb(32,32,32)" text-anchor="start" xml:space="preserve" letter-spacing="0.8">TRANSIT WALLET</text></g></g></g></g></g></g><g clip-path="url(#clip2)"><path d="M725.6,399H831.2a12.8,12.8 0 0 1 12.8,12.8V411.8a12.8,12.8 0 0 1 -12.7,12.8H725.6a12.8,12.8 0 0 1 -12.7,-12.7V411.8a12.8,12.8 0 0 1 12.8,-12.7Z" fill="none" stroke="rgb(232,232,232)" stroke-width="1"/><g clip-path="url(#clip2)"><g clip-path="url(#clip2)"><svg xmlns="http://www.w3.org/2000/svg" width="12" height="12" viewBox="0 0 24 24" fill="none" stroke="rgb(32,32,32)" stroke-width="2" stroke-linecap="round" stroke-linejoin="round" aria-hidden="true" x="821.4" y="405.8"><path d="M2 9a3 3 0 0 1 0 6v2a2 2 0 0 0 2 2h16a2 2 0 0 0 2-2v-2a3 3 0 0 1 0-6V7a2 2 0 0 0-2-2H4a2 2 0 0 0-2 2Z"/><path d="M13 5v2"/><path d="M13 17v2"/><path d="M13 11v2"/></svg></g><text x="769.4" y="414.8" font-family="Tajawal" font-size="11" fill="rgb(0,192,122)" text-anchor="middle" xml:space="preserve" font-weight="700" direction="rtl">بطاقة ذكية فعّالة</text></g></g></g></g><g clip-path="url(#clip2)"><g clip-path="url(#clip2)"><g clip-path="url(#clip2)"><g clip-path="url(#clip2)"><text x="1109.9" y="489.7" font-family="Inter" font-size="42" fill="rgb(255,255,255)" text-anchor="start" xml:space="preserve" font-weight="800">175.00</text></g></g><g clip-path="url(#clip2)"><g clip-path="url(#clip2)"><text x="1089.1" y="486.6" font-family="Tajawal" font-size="14" fill="rgb(32,32,32)" text-anchor="middle" xml:space="preserve" font-weight="700" direction="rtl">ج.م</text></g></g></g></g><g clip-path="url(#clip2)"><g clip-path="url(#clip2)"><text x="712.4" y="521.6" font-family="Inter" font-size="12.5" fill="rgb(32,32,32)" text-anchor="start" xml:space="preserve" font-weight="700">WASEL-CAIRO •••• •••• 9021</text></g></g><g clip-path="url(#clip2)"><g clip-path="url(#clip2)"><g clip-path="url(#clip2)"><path d="M1153,551.5H1256a16,16 0 0 1 16,16V567.5a16,16 0 0 1 -16,16H1153a16,16 0 0 1 -16,-16V567.5a16,16 0 0 1 16,-16Z" fill="rgb(255,255,255)"/><g clip-path="url(#clip2)"><g clip-path="url(#clip2)"><svg xmlns="http://www.w3.org/2000/svg" width="16" height="16" viewBox="0 0 24 24" fill="none" stroke="rgb(32,32,32)" stroke-width="2" stroke-linecap="round" stroke-linejoin="round" aria-hidden="true" x="1242" y="559.5"><path d="M5 12h14"/><path d="M12 5v14"/></svg></g><text x="1192.5" y="571.1" font-family="Cairo" font-size="12" fill="rgb(32,32,32)" text-anchor="middle" xml:space="preserve" font-weight="700" direction="rtl">شحن المحفظة</text></g></g><g clip-path="url(#clip2)"><g clip-path="url(#clip2)"><g clip-path="url(#clip2)"><svg xmlns="http://www.w3.org/2000/svg" width="16" height="16" viewBox="0 0 24 24" fill="none" stroke="rgb(32,32,32)" stroke-width="2" stroke-linecap="round" stroke-linejoin="round" aria-hidden="true" x="1097" y="559.5"><path d="M3 12a9 9 0 1 0 9-9 9.75 9.75 0 0 0-6.74 2.74L3 8"/><path d="M3 3v5h5"/><path d="M12 7v5l4 2"/></svg></g><text x="1043.5" y="571.1" font-family="Cairo" font-size="12" fill="rgb(32,32,32)" text-anchor="middle" xml:space="preserve" font-weight="700" direction="rtl">سجل المعاملات</text></g></g><g clip-path="url(#clip2)"><g clip-path="url(#clip2)"><g clip-path="url(#clip2)"><svg xmlns="http://www.w3.org/2000/svg" width="14" height="14" viewBox="0 0 24 24" fill="none" stroke="rgb(32,32,32)" stroke-width="2" stroke-linecap="round" stroke-linejoin="round" aria-hidden="true" x="838.8" y="560.5"><rect width="20" height="14" x="2" y="5" rx="2"/><line x1="2" x2="22" y1="10" y2="10"/></svg></g><g clip-path="url(#clip2)"><g clip-path="url(#clip2)"><text x="712.4" y="571" font-family="Inter" font-size="10" fill="rgb(32,32,32)" text-anchor="start" xml:space="preserve" font-weight="700" letter-spacing="0.8">LINKED · SANCTUM</text></g></g></g></g></g></g></g></g><g clip-path="url(#clip2)"><g clip-path="url(#clip2)"/></g></g></g></g></g><g><path d="M160,368.8H656.4a16,16 0 0 1 16,16V591.5a16,16 0 0 1 -16,16H160a16,16 0 0 1 -16,-16V384.8a16,16 0 0 1 16,-16Z" fill="rgb(248,249,250)"/><path d="M160,369.3H656.4a15.5,15.5 0 0 1 15.5,15.5V591.5a15.5,15.5 0 0 1 -15.5,15.5H160a15.5,15.5 0 0 1 -15.5,-15.5V384.8a15.5,15.5 0 0 1 15.5,-15.5Z" fill="none" stroke="rgb(232,232,232)" stroke-width="1"/><g><g><g><g><path d="M627.4,393.8H631.4a16,16 0 0 1 16,16V413.8a16,16 0 0 1 -16,16H627.4a16,16 0 0 1 -16,-16V409.8a16,16 0 0 1 16,-16Z" fill="rgb(255,255,255)"/><path d="M627.4,394.3H631.4a15.5,15.5 0 0 1 15.5,15.5V413.8a15.5,15.5 0 0 1 -15.5,15.5H627.4a15.5,15.5 0 0 1 -15.5,-15.5V409.8a15.5,15.5 0 0 1 15.5,-15.5Z" fill="none" stroke="rgb(232,232,232)" stroke-width="1"/><g><g><svg xmlns="http://www.w3.org/2000/svg" width="18" height="18" viewBox="0 0 24 24" fill="none" stroke="rgb(32,32,32)" stroke-width="2" stroke-linecap="round" stroke-linejoin="round" aria-hidden="true" x="620.4" y="402.8"><path d="M2 9a3 3 0 0 1 0 6v2a2 2 0 0 0 2 2h16a2 2 0 0 0 2-2v-2a3 3 0 0 1 0-6V7a2 2 0 0 0-2-2H4a2 2 0 0 0-2 2Z"/><path d="M13 5v2"/><path d="M13 17v2"/><path d="M13 11v2"/></svg></g></g></g><g><path d="M182.3,399H224.1a12.8,12.8 0 0 1 12.8,12.8V411.8a12.8,12.8 0 0 1 -12.7,12.8H182.3a12.8,12.8 0 0 1 -12.7,-12.7V411.8a12.8,12.8 0 0 1 12.8,-12.7Z" fill="none" stroke="rgb(232,232,232)" stroke-width="1"/><g><g><svg xmlns="http://www.w3.org/2000/svg" width="12" height="12" viewBox="0 0 24 24" fill="none" stroke="rgb(32,32,32)" stroke-width="2" stroke-linecap="round" stroke-linejoin="round" aria-hidden="true" x="214.4" y="405.8"><path d="M16 14v2.2l1.6 1"/><path d="M16 2v4"/><path d="M21 7.5V6a2 2 0 0 0-2-2H5a2 2 0 0 0-2 2v14a2 2 0 0 0 2 2h3.5"/><path d="M3 10h5"/><path d="M8 2v4"/><circle cx="16" cy="16" r="6"/></svg></g><text x="194.2" y="414.8" font-family="Tajawal" font-size="11" fill="rgb(0,192,122)" text-anchor="middle" xml:space="preserve" font-weight="700" direction="rtl">فعّالة</text></g></g></g></g><g><g><text x="575.9" y="463.3" font-family="Cairo" font-size="16" fill="rgb(32,32,32)" text-anchor="middle" xml:space="preserve" font-weight="900" direction="rtl">بطاقة شهريّة مترو</text></g></g><g><g><text x="512.2" y="491.6" font-family="Tajawal" font-size="12.5" fill="rgb(100,100,100)" text-anchor="middle" xml:space="preserve" direction="rtl">اشتراك غير محدود على خطوط المترو — فعّالة حتى</text><g><g><text x="343.7" y="491.6" font-family="Tajawal" font-size="12.5" fill="rgb(32,32,32)" text-anchor="middle" xml:space="preserve" font-weight="700" direction="rtl">15 أكتوبر</text></g></g></g></g><g><g><g><path d="M610,513.8H637.4a10,10 0 0 1 10,10V523.8a10,10 0 0 1 -10,10H610a10,10 0 0 1 -10,-10V523.8a10,10 0 0 1 10,-10Z" fill="rgb(29,78,216)" fill-opacity="0.08"/><path d="M610,514.3H637.4a9.5,9.5 0 0 1 9.5,9.5V523.8a9.5,9.5 0 0 1 -9.5,9.5H610a9.5,9.5 0 0 1 -9.5,-9.5V523.8a9.5,9.5 0 0 1 9.5,-9.5Z" fill="none" stroke="rgb(29,78,216)" stroke-width="1" stroke-opacity="0.19"/><g><g><svg viewBox="0 0 8 8" aria-hidden="true" x="609" y="518.8" width="10" height="10"><circle cx="4" cy="4" r="4" fill="#1d4ed8"/></svg></g><text x="625" y="527.2" font-family="Inter" font-size="10" fill="rgb(29,78,216)" text-anchor="start" xml:space="preserve" font-weight="700">L1</text></g></g><g><path d="M556.7,513.8H584a10,10 0 0 1 10,10V523.8a10,10 0 0 1 -10,10H556.7a10,10 0 0 1 -10,-10V523.8a10,10 0 0 1 10,-10Z" fill="rgb(220,38,38)" fill-opacity="0.08"/><path d="M556.7,514.3H584a9.5,9.5 0 0 1 9.5,9.5V523.8a9.5,9.5 0 0 1 -9.5,9.5H556.7a9.5,9.5 0 0 1 -9.5,-9.5V523.8a9.5,9.5 0 0 1 9.5,-9.5Z" fill="none" stroke="rgb(220,38,38)" stroke-width="1" stroke-opacity="0.19"/><g><g><svg viewBox="0 0 8 8" aria-hidden="true" x="555.7" y="518.8" width="10" height="10"><circle cx="4" cy="4" r="4" fill="#dc2626"/></svg></g><text x="571.7" y="527.2" font-family="Inter" font-size="10" fill="rgb(220,38,38)" text-anchor="start" xml:space="preserve" font-weight="700">L2</text></g></g><g><path d="M503.3,513.8H530.7a10,10 0 0 1 10,10V523.8a10,10 0 0 1 -10,10H503.3a10,10 0 0 1 -10,-10V523.8a10,10 0 0 1 10,-10Z" fill="rgb(22,163,74)" fill-opacity="0.08"/><path d="M503.3,514.3H530.7a9.5,9.5 0 0 1 9.5,9.5V523.8a9.5,9.5 0 0 1 -9.5,9.5H503.3a9.5,9.5 0 0 1 -9.5,-9.5V523.8a9.5,9.5 0 0 1 9.5,-9.5Z" fill="none" stroke="rgb(22,163,74)" stroke-width="1" stroke-opacity="0.19"/><g><g><svg viewBox="0 0 8 8" aria-hidden="true" x="502.3" y="518.8" width="10" height="10"><circle cx="4" cy="4" r="4" fill="#16a34a"/></svg></g><text x="518.3" y="527.2" font-family="Inter" font-size="10" fill="rgb(22,163,74)" text-anchor="start" xml:space="preserve" font-weight="700">L3</text></g></g><g><path d="M450,513.8H477.3a10,10 0 0 1 10,10V523.8a10,10 0 0 1 -10,10H450a10,10 0 0 1 -10,-10V523.8a10,10 0 0 1 10,-10Z" fill="rgb(234,88,12)" fill-opacity="0.08"/><path d="M450,514.3H477.3a9.5,9.5 0 0 1 9.5,9.5V523.8a9.5,9.5 0 0 1 -9.5,9.5H450a9.5,9.5 0 0 1 -9.5,-9.5V523.8a9.5,9.5 0 0 1 9.5,-9.5Z" fill="none" stroke="rgb(234,88,12)" stroke-width="1" stroke-opacity="0.19"/><g><g><svg viewBox="0 0 8 8" aria-hidden="true" x="449" y="518.8" width="10" height="10"><circle cx="4" cy="4" r="4" fill="#ea580c"/></svg></g><text x="465" y="527.2" font-family="Inter" font-size="10" fill="rgb(234,88,12)" text-anchor="start" xml:space="preserve" font-weight="700">L4</text></g></g></g></g><g><path d="M185,550.5H631.4a16,16 0 0 1 16,16V566.5a16,16 0 0 1 -16,16H185a16,16 0 0 1 -16,-16V566.5a16,16 0 0 1 16,-16Z" fill="rgb(32,32,32)"/><g><text x="408.2" y="570.1" font-family="Cairo" font-size="12" fill="rgb(255,255,255)" text-anchor="middle" xml:space="preserve" font-weight="700" direction="rtl">تجديد الاشتراك</text></g></g></g></g></g></g><g><g><g><g><g><g><text x="1199.9" y="652.5" font-family="Inter" font-size="10" fill="rgb(131,131,131)" text-anchor="start" xml:space="preserve" letter-spacing="0.8">JOURNEY IMPACT</text></g></g><g><g><text x="1219.5" y="681.4" font-family="Cairo" font-size="17" fill="rgb(32,32,32)" text-anchor="middle" xml:space="preserve" font-weight="900" direction="rtl">رحلاتك على الشبكة</text></g></g></g></g><g><path d="M160,703H1280a16,16 0 0 1 16,16V799.8a16,16 0 0 1 -16,16H160a16,16 0 0 1 -16,-16V719a16,16 0 0 1 16,-16Z" fill="rgb(248,249,250)"/><path d="M160,703.5H1280a15.5,15.5 0 0 1 15.5,15.5V799.8a15.5,15.5 0 0 1 -15.5,15.5H160a15.5,15.5 0 0 1 -15.5,-15.5V719a15.5,15.5 0 0 1 15.5,-15.5Z" fill="none" stroke="rgb(232,232,232)" stroke-width="1"/><g><g><g><g><g><text x="995.5" y="757.9" font-family="Inter" font-size="36" fill="rgb(9,12,29)" text-anchor="start" xml:space="preserve" font-weight="800">128</text></g></g><g><g><text x="1239" y="784.8" font-family="Tajawal" font-size="12.5" fill="rgb(100,100,100)" text-anchor="middle" xml:space="preserve" font-weight="500" direction="rtl">رحلة مكتملة</text></g></g></g></g><g><path d="M994.5,728h1v62.8h-1Z" fill="rgb(232,232,232)"/><g><g><g><text x="720" y="757.9" font-family="Inter" font-size="36" fill="rgb(9,12,29)" text-anchor="start" xml:space="preserve" font-weight="800">1,240</text></g></g><g><g><text x="941.2" y="784.8" font-family="Tajawal" font-size="12.5" fill="rgb(100,100,100)" text-anchor="middle" xml:space="preserve" font-weight="500" direction="rtl">كم مشوارة</text></g></g></g></g><g><path d="M719,728h1v62.8h-1Z" fill="rgb(232,232,232)"/><g><g><g><text x="444.5" y="757.9" font-family="Inter" font-size="36" fill="rgb(9,12,29)" text-anchor="start" xml:space="preserve" font-weight="800">96</text></g></g><g><g><text x="651.8" y="784.8" font-family="Tajawal" font-size="12.5" fill="rgb(100,100,100)" text-anchor="middle" xml:space="preserve" font-weight="500" direction="rtl">كجم CO₂ موفّرة</text></g></g></g></g><g><path d="M443.5,728h1v62.8h-1Z" fill="rgb(232,232,232)"/><g><g><g><text x="169" y="757.9" font-family="Inter" font-size="36" fill="rgb(9,12,29)" text-anchor="start" xml:space="preserve" font-weight="800">1,850</text></g></g><g><g><text x="380" y="784.8" font-family="Tajawal" font-size="12.5" fill="rgb(100,100,100)" text-anchor="middle" xml:space="preserve" font-weight="500" direction="rtl">ج.م توفير أجرة</text></g></g></g></g></g></g></g></g><g><g><g><g><g><g><text x="1188.5" y="860.7" font-family="Inter" font-size="10" fill="rgb(131,131,131)" text-anchor="start" xml:space="preserve" letter-spacing="0.8">FREQUENT PLACES</text></g></g><g><g><text x="1193.5" y="889.6" font-family="Cairo" font-size="17" fill="rgb(32,32,32)" text-anchor="middle" xml:space="preserve" font-weight="900" direction="rtl">الأماكن اليومية المفضلة</text></g></g></g></g><g><g><g><path d="M938.7,911.3H1280a16,16 0 0 1 16,16V1084.3a16,16 0 0 1 -16,16H938.7a16,16 0 0 1 -16,-16V927.3a16,16 0 0 1 16,-16Z" fill="rgb(255,255,255)"/><path d="M938.7,911.8H1280a15.5,15.5 0 0 1 15.5,15.5V1084.3a15.5,15.5 0 0 1 -15.5,15.5H938.7a15.5,15.5 0 0 1 -15.5,-15.5V927.3a15.5,15.5 0 0 1 15.5,-15.5Z" fill="none" stroke="rgb(232,232,232)" stroke-width="1"/><g><g><g><g><path d="M1247,932.3H1259a16,16 0 0 1 16,16V960.3a16,16 0 0 1 -16,16H1247a16,16 0 0 1 -16,-16V948.3a16,16 0 0 1 16,-16Z" fill="rgb(248,249,250)"/><path d="M1247,932.8H1259a15.5,15.5 0 0 1 15.5,15.5V960.3a15.5,15.5 0 0 1 -15.5,15.5H1247a15.5,15.5 0 0 1 -15.5,-15.5V948.3a15.5,15.5 0 0 1 15.5,-15.5Z" fill="none" stroke="rgb(232,232,232)" stroke-width="1"/><g><g><svg xmlns="http://www.w3.org/2000/svg" width="20" height="20" viewBox="0 0 24 24" fill="none" stroke="rgb(32,32,32)" stroke-width="2" stroke-linecap="round" stroke-linejoin="round" aria-hidden="true" x="1243" y="944.3"><path d="M15 21v-8a1 1 0 0 0-1-1h-4a1 1 0 0 0-1 1v8"/><path d="M3 10a2 2 0 0 1 .709-1.528l7-5.999a2 2 0 0 1 2.582 0l7 5.999A2 2 0 0 1 21 10v9a2 2 0 0 1-2 2H5a2 2 0 0 1-2-2z"/></svg></g></g></g><g opacity="0.7"><g><g opacity="0.7"><svg xmlns="http://www.w3.org/2000/svg" width="16" height="16" viewBox="0 0 24 24" fill="none" stroke="rgb(32,32,32)" stroke-width="2" stroke-linecap="round" stroke-linejoin="round" aria-hidden="true" x="953.7" y="942.3"><path d="M21.174 6.812a1 1 0 0 0-3.986-3.987L3.842 16.174a2 2 0 0 0-.5.83l-1.321 4.352a.5.5 0 0 0 .623.622l4.353-1.32a2 2 0 0 0 .83-.497z"/><path d="m15 5 4 4"/></svg></g></g></g></g></g><g><g><text x="1253" y="1005.9" font-family="Cairo" font-size="15" fill="rgb(32,32,32)" text-anchor="middle" xml:space="preserve" font-weight="900" direction="rtl">المنزل</text></g></g><g><g><text x="1173.9" y="1032.6" font-family="Tajawal" font-size="12.5" fill="rgb(100,100,100)" text-anchor="middle" xml:space="preserve" direction="rtl">المعادي — شارع 9 بجوار محطة المترو</text></g></g><g><path d="M1133.8,1052.8H1261.8a13.3,13.3 0 0 1 13.3,13.3V1066a13.3,13.3 0 0 1 -13.2,13.3H1133.8a13.3,13.3 0 0 1 -13.2,-13.2V1066a13.3,13.3 0 0 1 13.3,-13.2Z" fill="rgb(248,249,250)"/><path d="M1133.8,1053.3H1261.8a12.8,12.8 0 0 1 12.8,12.8V1066a12.8,12.8 0 0 1 -12.7,12.8H1133.8a12.8,12.8 0 0 1 -12.7,-12.7V1066a12.8,12.8 0 0 1 12.8,-12.7Z" fill="none" stroke="rgb(232,232,232)" stroke-width="1"/><g><g><svg xmlns="http://www.w3.org/2000/svg" width="12" height="12" viewBox="0 0 24 24" fill="none" stroke="rgb(32,32,32)" stroke-width="2" stroke-linecap="round" stroke-linejoin="round" aria-hidden="true" x="1252" y="1060"><path d="M8 3.1V7a4 4 0 0 0 8 0V3.1"/><path d="m9 15-1-1"/><path d="m15 15 1-1"/><path d="M9 19c-2.8 0-5-2.2-5-5v-4a8 8 0 0 1 16 0v4c0 2.8-2.2 5-5 5Z"/><path d="m8 19-2 3"/><path d="m16 19 2 3"/></svg></g><text x="1211.4" y="1069" font-family="Tajawal" font-size="11" fill="rgb(42,42,42)" text-anchor="middle" xml:space="preserve" font-weight="700" direction="rtl">أقرب محطة:</text><text x="1152.3" y="1069" font-family="Tajawal" font-size="11" fill="rgb(42,42,42)" text-anchor="middle" xml:space="preserve" font-weight="700" direction="rtl">المعادي</text></g></g></g></g><g><path d="M549.3,911.3H890.7a16,16 0 0 1 16,16V1084.3a16,16 0 0 1 -16,16H549.3a16,16 0 0 1 -16,-16V927.3a16,16 0 0 1 16,-16Z" fill="rgb(255,255,255)"/><path d="M549.3,911.8H890.7a15.5,15.5 0 0 1 15.5,15.5V1084.3a15.5,15.5 0 0 1 -15.5,15.5H549.3a15.5,15.5 0 0 1 -15.5,-15.5V927.3a15.5,15.5 0 0 1 15.5,-15.5Z" fill="none" stroke="rgb(232,232,232)" stroke-width="1"/><g><g><g><g><path d="M857.7,932.3H869.7a16,16 0 0 1 16,16V960.3a16,16 0 0 1 -16,16H857.7a16,16 0 0 1 -16,-16V948.3a16,16 0 0 1 16,-16Z" fill="rgb(248,249,250)"/><path d="M857.7,932.8H869.7a15.5,15.5 0 0 1 15.5,15.5V960.3a15.5,15.5 0 0 1 -15.5,15.5H857.7a15.5,15.5 0 0 1 -15.5,-15.5V948.3a15.5,15.5 0 0 1 15.5,-15.5Z" fill="none" stroke="rgb(232,232,232)" stroke-width="1"/><g><g><svg xmlns="http://www.w3.org/2000/svg" width="20" height="20" viewBox="0 0 24 24" fill="none" stroke="rgb(32,32,32)" stroke-width="2" stroke-linecap="round" stroke-linejoin="round" aria-hidden="true" x="853.7" y="944.3"><path d="M16 20V4a2 2 0 0 0-2-2h-4a2 2 0 0 0-2 2v16"/><rect width="20" height="14" x="2" y="6" rx="2"/></svg></g></g></g><g opacity="0.7"><g><g opacity="0.7"><svg xmlns="http://www.w3.org/2000/svg" width="16" height="16" viewBox="0 0 24 24" fill="none" stroke="rgb(32,32,32)" stroke-width="2" stroke-linecap="round" stroke-linejoin="round" aria-hidden="true" x="564.3" y="942.3"><path d="M21.174 6.812a1 1 0 0 0-3.986-3.987L3.842 16.174a2 2 0 0 0-.5.83l-1.321 4.352a.5.5 0 0 0 .623.622l4.353-1.32a2 2 0 0 0 .83-.497z"/><path d="m15 5 4 4"/></svg></g></g></g></g></g><g><g><text x="863.7" y="1005.9" font-family="Cairo" font-size="15" fill="rgb(32,32,32)" text-anchor="middle" xml:space="preserve" font-weight="900" direction="rtl">العمل</text></g></g><g><g><text x="771.6" y="1032.6" font-family="Tajawal" font-size="12.5" fill="rgb(100,100,100)" text-anchor="middle" xml:space="preserve" direction="rtl">مدينة نصر — البرج الذكي أمام مدينة الاستاد</text></g></g><g><path d="M748.8,1052.8H872.4a13.3,13.3 0 0 1 13.3,13.3V1066a13.3,13.3 0 0 1 -13.2,13.3H748.8a13.3,13.3 0 0 1 -13.2,-13.2V1066a13.3,13.3 0 0 1 13.3,-13.2Z" fill="rgb(248,249,250)"/><path d="M748.8,1053.3H872.4a12.8,12.8 0 0 1 12.8,12.8V1066a12.8,12.8 0 0 1 -12.7,12.8H748.8a12.8,12.8 0 0 1 -12.7,-12.7V1066a12.8,12.8 0 0 1 12.8,-12.7Z" fill="none" stroke="rgb(232,232,232)" stroke-width="1"/><g><g><svg xmlns="http://www.w3.org/2000/svg" width="12" height="12" viewBox="0 0 24 24" fill="none" stroke="rgb(32,32,32)" stroke-width="2" stroke-linecap="round" stroke-linejoin="round" aria-hidden="true" x="862.7" y="1060"><path d="M8 3.1V7a4 4 0 0 0 8 0V3.1"/><path d="m9 15-1-1"/><path d="m15 15 1-1"/><path d="M9 19c-2.8 0-5-2.2-5-5v-4a8 8 0 0 1 16 0v4c0 2.8-2.2 5-5 5Z"/><path d="m8 19-2 3"/><path d="m16 19 2 3"/></svg></g><text x="822.1" y="1069" font-family="Tajawal" font-size="11" fill="rgb(42,42,42)" text-anchor="middle" xml:space="preserve" font-weight="700" direction="rtl">أقرب محطة:</text><text x="765.1" y="1069" font-family="Tajawal" font-size="11" fill="rgb(42,42,42)" text-anchor="middle" xml:space="preserve" font-weight="700" direction="rtl">الاستاد</text></g></g></g></g><g><path d="M160,911.3H501.3a16,16 0 0 1 16,16V1084.3a16,16 0 0 1 -16,16H160a16,16 0 0 1 -16,-16V927.3a16,16 0 0 1 16,-16Z" fill="rgb(255,255,255)"/><path d="M160,912.3H501.3a15,15 0 0 1 15,15V1084.3a15,15 0 0 1 -15,15H160a15,15 0 0 1 -15,-15V927.3a15,15 0 0 1 15,-15Z" fill="none" stroke="rgb(232,232,232)" stroke-width="2" stroke-dasharray="6 4"/><g><g><path d="M330.7,971.5H330.7a19.5,19.5 0 0 1 19.5,19.5V991a19.5,19.5 0 0 1 -19.5,19.5H330.7a19.5,19.5 0 0 1 -19.5,-19.5V991a19.5,19.5 0 0 1 19.5,-19.5Z" fill="none" stroke="rgb(232,232,232)" stroke-width="1"/><g><g><svg xmlns="http://www.w3.org/2000/svg" width="18" height="18" viewBox="0 0 24 24" fill="none" stroke="rgb(32,32,32)" stroke-width="2" stroke-linecap="round" stroke-linejoin="round" aria-hidden="true" x="321.7" y="982"><path d="M5 12h14"/><path d="M12 5v14"/></svg></g></g></g><g><g><text x="330.7" y="1035" font-family="Tajawal" font-size="13" fill="rgb(100,100,100)" text-anchor="middle" xml:space="preserve" font-weight="700" direction="rtl">إضافة مكان</text></g></g></g></g></g></g></g></g><g><g><g><g><g><g><text x="1190.2" y="1145.2" font-family="Inter" font-size="10" fill="rgb(131,131,131)" text-anchor="start" xml:space="preserve" letter-spacing="0.8">APP PREFERENCES</text></g></g><g><g><text x="1223.5" y="1174.1" font-family="Cairo" font-size="17" fill="rgb(32,32,32)" text-anchor="middle" xml:space="preserve" font-weight="900" direction="rtl">تفضيلات التطبيق</text></g></g></g></g><g><path d="M160,1195.8H1280a16,16 0 0 1 16,16V1547a16,16 0 0 1 -16,16H160a16,16 0 0 1 -16,-16V1211.8a16,16 0 0 1 16,-16Z" fill="rgb(255,255,255)"/><path d="M160,1196.3H1280a15.5,15.5 0 0 1 15.5,15.5V1547a15.5,15.5 0 0 1 -15.5,15.5H160a15.5,15.5 0 0 1 -15.5,-15.5V1211.8a15.5,15.5 0 0 1 15.5,-15.5Z" fill="none" stroke="rgb(232,232,232)" stroke-width="1"/><g clip-path="url(#clip3)"><g clip-path="url(#clip3)"><path d="M145,1269h1150v1h-1150Z" fill="rgb(232,232,232)"/><g clip-path="url(#clip3)"><g clip-path="url(#clip3)"><path d="M1251,1213.4H1259a15.5,15.5 0 0 1 15.5,15.5V1236.9a15.5,15.5 0 0 1 -15.5,15.5H1251a15.5,15.5 0 0 1 -15.5,-15.5V1228.9a15.5,15.5 0 0 1 15.5,-15.5Z" fill="none" stroke="rgb(232,232,232)" stroke-width="1"/><g clip-path="url(#clip3)"><g clip-path="url(#clip3)"><svg xmlns="http://www.w3.org/2000/svg" width="18" height="18" viewBox="0 0 24 24" fill="none" stroke="rgb(32,32,32)" stroke-width="2" stroke-linecap="round" stroke-linejoin="round" aria-hidden="true" x="1246" y="1223.9"><path d="M10.268 21a2 2 0 0 0 3.464 0"/><path d="M3.262 15.326A1 1 0 0 0 4 17h16a1 1 0 0 0 .74-1.673C19.41 13.956 18 12.499 18 8A6 6 0 0 0 6 8c0 4.499-1.411 5.956-2.738 7.326"/></svg></g></g></g><g clip-path="url(#clip3)"><g clip-path="url(#clip3)"><g clip-path="url(#clip3)"><g clip-path="url(#clip3)"><text x="1157.4" y="1227.4" font-family="Tajawal" font-size="13.5" fill="rgb(32,32,32)" text-anchor="middle" xml:space="preserve" font-weight="900" direction="rtl">الإشعارات اللحظية</text></g></g><g clip-path="url(#clip3)"><g clip-path="url(#clip4)"><text x="1088.5" y="1248.1" font-family="Tajawal" font-size="12" fill="rgb(100,100,100)" text-anchor="middle" xml:space="preserve" direction="rtl">تنبيهات فورية لحالة الخطوط وتغيّر رحلاتك المحفوظة</text></g></g></g></g><g clip-path="url(#clip3)"><path d="M174.2,1223.7H187.8a9.2,9.2 0 0 1 9.2,9.2V1232.9a9.2,9.2 0 0 1 -9.2,9.2H174.2a9.2,9.2 0 0 1 -9.2,-9.2V1232.9a9.2,9.2 0 0 1 9.2,-9.2Z" fill="rgb(32,32,32)"/><path d="M174.2,1224.2H187.8a8.7,8.7 0 0 1 8.7,8.7V1232.9a8.7,8.7 0 0 1 -8.7,8.7H174.2a8.7,8.7 0 0 1 -8.7,-8.7V1232.9a8.7,8.7 0 0 1 8.7,-8.7Z" fill="none" stroke="rgb(232,232,232)" stroke-width="1"/><g clip-path="url(#clip3)"><g clip-path="url(#clip3)"><path d="M202,1224.9H202a8,8 0 0 1 8,8V1232.9a8,8 0 0 1 -8,8H202a8,8 0 0 1 -8,-8V1232.9a8,8 0 0 1 8,-8Z" fill="rgb(255,255,255)"/><g clip-path="url(#clip3)"/></g></g></g></g></g><g clip-path="url(#clip3)"><path d="M145,1342.3h1150v1h-1150Z" fill="rgb(232,232,232)"/><g clip-path="url(#clip3)"><g clip-path="url(#clip3)"><path d="M1251,1286.1H1259a16,16 0 0 1 16,16V1310.1a16,16 0 0 1 -16,16H1251a16,16 0 0 1 -16,-16V1302.1a16,16 0 0 1 16,-16Z" fill="rgb(248,249,250)"/><path d="M1251,1286.6H1259a15.5,15.5 0 0 1 15.5,15.5V1310.1a15.5,15.5 0 0 1 -15.5,15.5H1251a15.5,15.5 0 0 1 -15.5,-15.5V1302.1a15.5,15.5 0 0 1 15.5,-15.5Z" fill="none" stroke="rgb(232,232,232)" stroke-width="1"/><g clip-path="url(#clip3)"><g clip-path="url(#clip3)"><svg xmlns="http://www.w3.org/2000/svg" width="18" height="18" viewBox="0 0 24 24" fill="none" stroke="rgb(32,32,32)" stroke-width="2" stroke-linecap="round" stroke-linejoin="round" aria-hidden="true" x="1246" y="1297.1"><path d="M12 20h.01"/><path d="M8.5 16.429a5 5 0 0 1 7 0"/><path d="M5 12.859a10 10 0 0 1 5.17-2.69"/><path d="M19 12.859a10 10 0 0 0-2.007-1.523"/><path d="M2 8.82a15 15 0 0 1 4.177-2.643"/><path d="M22 8.82a15 15 0 0 0-11.288-3.764"/><path d="m2 2 20 20"/></svg></g></g></g><g clip-path="url(#clip3)"><g clip-path="url(#clip3)"><g clip-path="url(#clip3)"><g clip-path="url(#clip3)"><text x="1110.9" y="1300.7" font-family="Tajawal" font-size="13.5" fill="rgb(32,32,32)" text-anchor="middle" xml:space="preserve" font-weight="900" direction="rtl">وضع عدم الاتصال (تخزين محلي)</text></g></g><g clip-path="url(#clip3)"><g clip-path="url(#clip5)"><text x="1064" y="1321.4" font-family="Tajawal" font-size="12" fill="rgb(100,100,100)" text-anchor="middle" xml:space="preserve" direction="rtl">تخزين بيانات الشبكة محليًا للاستخدام داخل الأنفاق — 22 م.ب</text></g></g></g></g><g clip-path="url(#clip3)"><path d="M174.2,1296.9H187.8a9.2,9.2 0 0 1 9.2,9.2V1306.1a9.2,9.2 0 0 1 -9.2,9.2H174.2a9.2,9.2 0 0 1 -9.2,-9.2V1306.1a9.2,9.2 0 0 1 9.2,-9.2Z" fill="rgb(232,232,232)"/><path d="M174.2,1297.4H187.8a8.7,8.7 0 0 1 8.7,8.7V1306.1a8.7,8.7 0 0 1 -8.7,8.7H174.2a8.7,8.7 0 0 1 -8.7,-8.7V1306.1a8.7,8.7 0 0 1 8.7,-8.7Z" fill="none" stroke="rgb(232,232,232)" stroke-width="1"/><g clip-path="url(#clip3)"><g clip-path="url(#clip3)"><path d="M188,1298.1H188a8,8 0 0 1 8,8V1306.1a8,8 0 0 1 -8,8H188a8,8 0 0 1 -8,-8V1306.1a8,8 0 0 1 8,-8Z" fill="rgb(255,255,255)"/><g clip-path="url(#clip3)"/></g></g></g></g></g><g clip-path="url(#clip3)"><path d="M145,1415.5h1150v1h-1150Z" fill="rgb(232,232,232)"/><g clip-path="url(#clip3)"><g clip-path="url(#clip3)"><path d="M1251,1359.4H1259a16,16 0 0 1 16,16V1383.4a16,16 0 0 1 -16,16H1251a16,16 0 0 1 -16,-16V1375.4a16,16 0 0 1 16,-16Z" fill="rgb(248,249,250)"/><path d="M1251,1359.9H1259a15.5,15.5 0 0 1 15.5,15.5V1383.4a15.5,15.5 0 0 1 -15.5,15.5H1251a15.5,15.5 0 0 1 -15.5,-15.5V1375.4a15.5,15.5 0 0 1 15.5,-15.5Z" fill="none" stroke="rgb(232,232,232)" stroke-width="1"/><g clip-path="url(#clip3)"><g clip-path="url(#clip3)"><svg xmlns="http://www.w3.org/2000/svg" width="18" height="18" viewBox="0 0 24 24" fill="none" stroke="rgb(32,32,32)" stroke-width="2" stroke-linecap="round" stroke-linejoin="round" aria-hidden="true" x="1246" y="1370.4"><path d="M12 3a6 6 0 0 0 9 9 9 9 0 1 1-9-9Z"/></svg></g></g></g><g clip-path="url(#clip3)"><g clip-path="url(#clip3)"><g clip-path="url(#clip3)"><g clip-path="url(#clip3)"><text x="1177.8" y="1373.9" font-family="Tajawal" font-size="13.5" fill="rgb(32,32,32)" text-anchor="middle" xml:space="preserve" font-weight="900" direction="rtl">خريطة داكنة</text></g></g><g clip-path="url(#clip3)"><g clip-path="url(#clip6)"><text x="1079.9" y="1394.6" font-family="Tajawal" font-size="12" fill="rgb(100,100,100)" text-anchor="middle" xml:space="preserve" direction="rtl">عرض الخريطة بسمة داكنة مريحة في الإضاءة المنخفضة</text></g></g></g></g><g clip-path="url(#clip3)"><path d="M174.2,1370.2H187.8a9.2,9.2 0 0 1 9.2,9.2V1379.4a9.2,9.2 0 0 1 -9.2,9.2H174.2a9.2,9.2 0 0 1 -9.2,-9.2V1379.4a9.2,9.2 0 0 1 9.2,-9.2Z" fill="rgb(232,232,232)"/><path d="M174.2,1370.7H187.8a8.7,8.7 0 0 1 8.7,8.7V1379.4a8.7,8.7 0 0 1 -8.7,8.7H174.2a8.7,8.7 0 0 1 -8.7,-8.7V1379.4a8.7,8.7 0 0 1 8.7,-8.7Z" fill="none" stroke="rgb(232,232,232)" stroke-width="1"/><g clip-path="url(#clip3)"><g clip-path="url(#clip3)"><path d="M188,1371.4H188a8,8 0 0 1 8,8V1379.4a8,8 0 0 1 -8,8H188a8,8 0 0 1 -8,-8V1379.4a8,8 0 0 1 8,-8Z" fill="rgb(255,255,255)"/><g clip-path="url(#clip3)"/></g></g></g></g></g><g clip-path="url(#clip3)"><path d="M145,1488.8h1150v1h-1150Z" fill="rgb(232,232,232)"/><g clip-path="url(#clip3)"><g clip-path="url(#clip3)"><path d="M1251,1433.1H1259a15.5,15.5 0 0 1 15.5,15.5V1456.6a15.5,15.5 0 0 1 -15.5,15.5H1251a15.5,15.5 0 0 1 -15.5,-15.5V1448.6a15.5,15.5 0 0 1 15.5,-15.5Z" fill="none" stroke="rgb(232,232,232)" stroke-width="1"/><g clip-path="url(#clip3)"><g clip-path="url(#clip3)"><svg xmlns="http://www.w3.org/2000/svg" width="18" height="18" viewBox="0 0 24 24" fill="none" stroke="rgb(32,32,32)" stroke-width="2" stroke-linecap="round" stroke-linejoin="round" aria-hidden="true" x="1246" y="1443.6"><path d="M11 4.702a.705.705 0 0 0-1.203-.498L6.413 7.587A1.4 1.4 0 0 1 5.416 8H3a1 1 0 0 0-1 1v6a1 1 0 0 0 1 1h2.416a1.4 1.4 0 0 1 .997.413l3.383 3.384A.705.705 0 0 0 11 19.298z"/><path d="M16 9a5 5 0 0 1 0 6"/><path d="M19.364 18.364a9 9 0 0 0 0-12.728"/></svg></g></g></g><g clip-path="url(#clip3)"><g clip-path="url(#clip3)"><g clip-path="url(#clip3)"><g clip-path="url(#clip3)"><text x="1161.9" y="1447.2" font-family="Tajawal" font-size="13.5" fill="rgb(32,32,32)" text-anchor="middle" xml:space="preserve" font-weight="900" direction="rtl">التنبيهات الصوتية</text></g></g><g clip-path="url(#clip3)"><g clip-path="url(#clip7)"><text x="1123.4" y="1467.9" font-family="Tajawal" font-size="12" fill="rgb(100,100,100)" text-anchor="middle" xml:space="preserve" direction="rtl">نغمة تنبيه قبل وصول الموقف بدقيقتين</text></g></g></g></g><g clip-path="url(#clip3)"><path d="M174.2,1443.4H187.8a9.2,9.2 0 0 1 9.2,9.2V1452.6a9.2,9.2 0 0 1 -9.2,9.2H174.2a9.2,9.2 0 0 1 -9.2,-9.2V1452.6a9.2,9.2 0 0 1 9.2,-9.2Z" fill="rgb(32,32,32)"/><path d="M174.2,1443.9H187.8a8.7,8.7 0 0 1 8.7,8.7V1452.6a8.7,8.7 0 0 1 -8.7,8.7H174.2a8.7,8.7 0 0 1 -8.7,-8.7V1452.6a8.7,8.7 0 0 1 8.7,-8.7Z" fill="none" stroke="rgb(232,232,232)" stroke-width="1"/><g clip-path="url(#clip3)"><g clip-path="url(#clip3)"><path d="M202,1444.6H202a8,8 0 0 1 8,8V1452.6a8,8 0 0 1 -8,8H202a8,8 0 0 1 -8,-8V1452.6a8,8 0 0 1 8,-8Z" fill="rgb(255,255,255)"/><g clip-path="url(#clip3)"/></g></g></g></g></g><g clip-path="url(#clip3)"><g clip-path="url(#clip3)"><g clip-path="url(#clip3)"><path d="M1251,1505.9H1259a16,16 0 0 1 16,16V1529.9a16,16 0 0 1 -16,16H1251a16,16 0 0 1 -16,-16V1521.9a16,16 0 0 1 16,-16Z" fill="rgb(248,249,250)"/><path d="M1251,1506.4H1259a15.5,15.5 0 0 1 15.5,15.5V1529.9a15.5,15.5 0 0 1 -15.5,15.5H1251a15.5,15.5 0 0 1 -15.5,-15.5V1521.9a15.5,15.5 0 0 1 15.5,-15.5Z" fill="none" stroke="rgb(232,232,232)" stroke-width="1"/><g clip-path="url(#clip3)"><g clip-path="url(#clip3)"><svg xmlns="http://www.w3.org/2000/svg" width="18" height="18" viewBox="0 0 24 24" fill="none" stroke="rgb(32,32,32)" stroke-width="2" stroke-linecap="round" stroke-linejoin="round" aria-hidden="true" x="1246" y="1516.9"><path d="m5 8 6 6"/><path d="m4 14 6-6 2-3"/><path d="M2 5h12"/><path d="M7 2h1"/><path d="m22 22-5-10-5 10"/><path d="M14 18h6"/></svg></g></g></g><g clip-path="url(#clip3)"><g clip-path="url(#clip3)"><g clip-path="url(#clip3)"><g clip-path="url(#clip3)"><text x="1178.9" y="1520.4" font-family="Tajawal" font-size="13.5" fill="rgb(32,32,32)" text-anchor="middle" xml:space="preserve" font-weight="900" direction="rtl">اللغة العربية</text></g></g><g clip-path="url(#clip3)"><g clip-path="url(#clip3)"><text x="1156.2" y="1541.1" font-family="Tajawal" font-size="12" fill="rgb(100,100,100)" text-anchor="middle" xml:space="preserve" direction="rtl">لغة واجهة التطبيق الحالية</text></g></g></g></g><g clip-path="url(#clip3)"><path d="M183,1507.9H275a18,18 0 0 1 18,18V1525.9a18,18 0 0 1 -18,18H183a18,18 0 0 1 -18,-18V1525.9a18,18 0 0 1 18,-18Z" fill="rgb(248,249,250)"/><path d="M183,1508.4H275a17.5,17.5 0 0 1 17.5,17.5V1525.9a17.5,17.5 0 0 1 -17.5,17.5H183a17.5,17.5 0 0 1 -17.5,-17.5V1525.9a17.5,17.5 0 0 1 17.5,-17.5Z" fill="none" stroke="rgb(232,232,232)" stroke-width="1"/><g clip-path="url(#clip3)"><g clip-path="url(#clip3)"><g clip-path="url(#clip8)"><text x="257.4" y="1529.3" font-family="Tajawal" font-size="12.5" fill="rgb(32,32,32)" text-anchor="middle" xml:space="preserve" font-weight="700" direction="rtl">العربية</text></g></g><g opacity="0.5" clip-path="url(#clip3)"><svg xmlns="http://www.w3.org/2000/svg" width="16" height="16" viewBox="0 0 24 24" fill="none" stroke="rgb(32,32,32)" stroke-width="2" stroke-linecap="round" stroke-linejoin="round" aria-hidden="true" x="180" y="1517.9"><path d="m6 9 6 6 6-6"/></svg></g></g></g></g></g></g></g></g></g><g><g><g><g><g><g><text x="1241" y="1608" font-family="Inter" font-size="10" fill="rgb(131,131,131)" text-anchor="start" xml:space="preserve" letter-spacing="0.8">ACCOUNT</text></g></g><g><g><text x="1244" y="1636.9" font-family="Cairo" font-size="17" fill="rgb(32,32,32)" text-anchor="middle" xml:space="preserve" font-weight="900" direction="rtl">إدارة الحساب</text></g></g></g></g><g><path d="M160,1658.5H1280a16,16 0 0 1 16,16V1724.5a16,16 0 0 1 -16,16H160a16,16 0 0 1 -16,-16V1674.5a16,16 0 0 1 16,-16Z" fill="rgb(255,255,255)"/><path d="M160,1659H1280a15.5,15.5 0 0 1 15.5,15.5V1724.5a15.5,15.5 0 0 1 -15.5,15.5H160a15.5,15.5 0 0 1 -15.5,-15.5V1674.5a15.5,15.5 0 0 1 15.5,-15.5Z" fill="none" stroke="rgb(232,232,232)" stroke-width="1"/><g><g><g><g><path d="M1144,1680H1255a19.5,19.5 0 0 1 19.5,19.5V1699.5a19.5,19.5 0 0 1 -19.5,19.5H1144a19.5,19.5 0 0 1 -19.5,-19.5V1699.5a19.5,19.5 0 0 1 19.5,-19.5Z" fill="none" stroke="rgb(232,232,232)" stroke-width="1"/><g><g><svg xmlns="http://www.w3.org/2000/svg" width="16" height="16" viewBox="0 0 24 24" fill="none" stroke="rgb(32,32,32)" stroke-width="2" stroke-linecap="round" stroke-linejoin="round" aria-hidden="true" x="1238" y="1691.5"><path d="m16 17 5-5-5-5"/><path d="M21 12H9"/><path d="M9 21H5a2 2 0 0 1-2-2V5a2 2 0 0 1 2-2h4"/></svg></g><text x="1187.5" y="1703.2" font-family="Cairo" font-size="13" fill="rgb(220,38,38)" text-anchor="middle" xml:space="preserve" font-weight="700" direction="rtl">تسجيل الخروج</text></g></g><g><g><g><svg xmlns="http://www.w3.org/2000/svg" width="16" height="16" viewBox="0 0 24 24" fill="none" stroke="rgb(32,32,32)" stroke-width="2" stroke-linecap="round" stroke-linejoin="round" aria-hidden="true" x="1080" y="1691.5"><path d="M3 6h18"/><path d="M19 6v14c0 1-1 2-2 2H7c-1 0-2-1-2-2V6"/><path d="M8 6V4c0-1 1-2 2-2h4c1 0 2 1 2 2v2"/><line x1="10" x2="10" y1="11" y2="17"/><line x1="14" x2="14" y1="11" y2="17"/></svg></g><text x="1028.8" y="1703.7" font-family="Tajawal" font-size="13" fill="rgb(220,38,38)" text-anchor="middle" xml:space="preserve" font-weight="700" direction="rtl">حذف الحساب</text></g></g><g><g><g><svg xmlns="http://www.w3.org/2000/svg" width="14" height="14" viewBox="0 0 24 24" fill="none" stroke="rgb(32,32,32)" stroke-width="2" stroke-linecap="round" stroke-linejoin="round" aria-hidden="true" x="443.4" y="1692.5"><path d="m21.73 18-8-14a2 2 0 0 0-3.48 0l-8 14A2 2 0 0 0 4 21h16a2 2 0 0 0 1.73-3"/><path d="M12 9v4"/><path d="M12 17h.01"/></svg></g><text x="301.2" y="1702.8" font-family="Tajawal" font-size="11.5" fill="rgb(100,100,100)" text-anchor="middle" xml:space="preserve" font-weight="500" direction="rtl">حذف الحساب يمسح رصيد المحفظة وتاريخ الرحلات نهائيًا</text></g></g></g></g></g></g></g></g></g></g></g></g></g></g><g><path d="M0,1772.5h1440v128h-1440Z" fill="rgb(248,249,250)"/><path d="M0,1772.5h1440v1h-1440Z" fill="rgb(232,232,232)"/><g><g><g><g><g><g><svg viewBox="0 0 32 32" aria-hidden="true" x="1268" y="1798.5" width="28" height="28"><rect width="32" height="32" rx="9" fill="#202020"/><path d="M8 21c4 0 4-10 8-10s4 10 8 10" stroke="#6647f0" stroke-width="3" fill="none" stroke-linecap="round"/><circle cx="8" cy="21" r="2.4" fill="#0091ff"/><circle cx="24" cy="21" r="2.4" fill="#ffffff"/></svg></g><g><g><g><g><text x="1224" y="1810" font-family="Cairo" font-size="13" fill="rgb(32,32,32)" text-anchor="middle" xml:space="preserve" font-weight="900" direction="rtl">واصل مصر</text></g></g><g><g><text x="1154.8" y="1824" font-family="Tajawal" font-size="11" fill="rgb(131,131,131)" text-anchor="middle" xml:space="preserve" direction="rtl">منصة النقل الذكي المتعدد — القاهرة الكبرى</text></g></g></g></g></g></g><g><g><text x="613.3" y="1816" font-family="Inter" font-size="10" fill="rgb(131,131,131)" text-anchor="start" xml:space="preserve" letter-spacing="0.8">GTFS RT READY · L1 L2 L3 L4 · LRT · MNR · BRT · ENR</text></g></g><g><g><g><g><text x="432.9" y="1816.6" font-family="Tajawal" font-size="12" fill="rgb(100,100,100)" text-anchor="middle" xml:space="preserve" font-weight="600" direction="rtl">الأجور الرسمية</text></g></g><g><g><text x="370.5" y="1816.6" font-family="Inter" font-size="12" fill="rgb(212,212,212)" text-anchor="middle" xml:space="preserve" font-weight="600" direction="rtl">|</text></g></g><g><g><text x="308.8" y="1816.6" font-family="Tajawal" font-size="12" fill="rgb(100,100,100)" text-anchor="middle" xml:space="preserve" font-weight="600" direction="rtl">تقارير المجتمع</text></g></g><g><g><text x="247" y="1816.6" font-family="Inter" font-size="12" fill="rgb(212,212,212)" text-anchor="middle" xml:space="preserve" font-weight="600" direction="rtl">|</text></g></g><g><g><text x="186.4" y="1816.6" font-family="Tajawal" font-size="12" fill="rgb(100,100,100)" text-anchor="middle" xml:space="preserve" font-weight="600" direction="rtl">غرفة العمليات</text></g></g></g></g></g></g><g><path d="M0,1851.5h1440v1h-1440Z" fill="rgb(232,232,232)"/><g><g><g><text x="522.8" y="1881.5" font-family="Inter" font-size="10" fill="rgb(131,131,131)" text-anchor="start" xml:space="preserve" letter-spacing="0.8">© 2025 WASEL EGYPT — NATIONAL MULTIMODAL TRANSIT PLATFORM</text></g></g></g></g></g></g><g><g><g><path d="M1388,1811H1388a30,30 0 0 1 30,30V1841a30,30 0 0 1 -30,30H1388a30,30 0 0 1 -30,-30V1841a30,30 0 0 1 30,-30Z M1388,1813H1388a28,28 0 0 1 28,28V1841a28,28 0 0 1 -28,28H1388a28,28 0 0 1 -28,-28V1841a28,28 0 0 1 28,-28Z" fill="url(#grad9_conic)" fill-rule="evenodd"/><path d="M1388,1813H1388a28,28 0 0 1 28,28V1841a28,28 0 0 1 -28,28H1388a28,28 0 0 1 -28,-28V1841a28,28 0 0 1 28,-28Z" fill="rgb(32,32,32)"/><g><g><svg xmlns="http://www.w3.org/2000/svg" width="20" height="20" viewBox="0 0 24 24" fill="none" stroke="rgb(32,32,32)" stroke-width="2" stroke-linecap="round" stroke-linejoin="round" aria-hidden="true" x="1378" y="1831"><path d="M9.937 15.5A2 2 0 0 0 8.5 14.063l-6.135-1.582a.5.5 0 0 1 0-.962L8.5 9.936A2 2 0 0 0 9.937 8.5l1.582-6.135a.5.5 0 0 1 .963 0L14.063 8.5A2 2 0 0 0 15.5 9.937l6.135 1.581a.5.5 0 0 1 0 .964L15.5 14.063a2 2 0 0 0-1.437 1.437l-1.582 6.135a.5.5 0 0 1-.963 0z"/><path d="M20 3v4"/><path d="M22 5h-4"/><path d="M4 17v2"/><path d="M5 18H3"/></svg></g></g></g></g></g></g></g></svg>